<svg width="24" height="20" viewBox="0 0 24 20" fill="none" xmlns="http://www.w3.org/2000/svg">
<path d="M18.1161 19.5097C19.2516 19.5097 20.1806 19.2774 20.9032 18.8129C21.6258 18.3484 22.2194 17.7548 22.6839 17.0323C23.2 16.1548 23.5613 15.2516 23.7677 14.3226C23.9226 13.3419 24 12.5419 24 11.9226C24 9.39355 23.3548 7.09678 22.0645 5.03226C20.7742 2.96775 18.7613 1.29032 16.0258 0L15.329 1.39355C16.929 2.06452 18.3226 3.12258 19.5097 4.56774C20.6452 6.01291 21.2129 7.48387 21.2129 8.98065C21.2129 9.6 21.1355 10.1419 20.9806 10.6065C20.1548 9.93549 19.2 9.6 18.1161 9.6C16.7742 9.6 15.6129 10.0387 14.6323 10.9161C13.6516 11.7936 13.1613 13.0065 13.1613 14.5548C13.1613 16 13.6516 17.1871 14.6323 18.1161C15.6129 19.0452 16.7742 19.5097 18.1161 19.5097ZM4.95484 19.5097C6.09032 19.5097 7.01935 19.2774 7.74193 18.8129C8.46451 18.3484 9.05806 17.7548 9.52258 17.0323C10.0387 16.1548 10.4 15.2516 10.6065 14.3226C10.7613 13.3419 10.8387 12.5419 10.8387 11.9226C10.8387 9.39355 10.1935 7.09678 8.90323 5.03226C7.6129 2.96775 5.6 1.29032 2.86452 0L2.16774 1.39355C3.76774 2.06452 5.16129 3.12258 6.34838 4.56774C7.48387 6.01291 8.05161 7.48387 8.05161 8.98065C8.05161 9.6 7.97419 10.1419 7.81936 10.6065C6.99355 9.93549 6.03871 9.6 4.95484 9.6C3.6129 9.6 2.45161 10.0387 1.47097 10.9161C0.490322 11.7936 0 13.0065 0 14.5548C0 16 0.490322 17.1871 1.47097 18.1161C2.45161 19.0452 3.6129 19.5097 4.95484 19.5097Z" fill="#A68740"/>
</svg>
