<svg width="41" height="33" viewBox="0 0 41 33" fill="none" xmlns="http://www.w3.org/2000/svg">
<path d="M9.93387 32.9386C8.01681 32.9386 6.4483 32.5465 5.22835 31.7623C4.00841 30.978 3.0063 29.9759 2.22205 28.756C1.35066 27.2746 0.740683 25.7497 0.392126 24.1812C0.130709 22.5255 0 21.1748 0 20.1292C0 15.8593 1.08924 11.9817 3.26772 8.49608C5.4462 5.01051 8.84463 2.17848 13.463 0L14.6394 2.35276C11.9381 3.48557 9.58532 5.27193 7.58111 7.71183C5.66405 10.1517 4.70552 12.6352 4.70552 15.1622C4.70552 16.2079 4.83623 17.1229 5.09765 17.9071C6.49187 16.7743 8.10395 16.2079 9.93387 16.2079C12.1995 16.2079 14.1601 16.9486 15.8158 18.43C17.4714 19.9113 18.2992 21.9591 18.2992 24.5733C18.2992 27.0132 17.4714 29.0174 15.8158 30.5859C14.1601 32.1544 12.1995 32.9386 9.93387 32.9386ZM32.1544 32.9386C30.2373 32.9386 28.6688 32.5465 27.4489 31.7623C26.2289 30.978 25.2268 29.9759 24.4426 28.756C23.5712 27.2746 22.9612 25.7497 22.6126 24.1812C22.3512 22.5255 22.2205 21.1748 22.2205 20.1292C22.2205 15.8593 23.3097 11.9817 25.4882 8.49608C27.6667 5.01051 31.0651 2.17848 35.6835 0L36.8599 2.35276C34.1586 3.48557 31.8058 5.27193 29.8016 7.71183C27.8846 10.1517 26.926 12.6352 26.926 15.1622C26.926 16.2079 27.0567 17.1229 27.3182 17.9071C28.7124 16.7743 30.3245 16.2079 32.1544 16.2079C34.42 16.2079 36.3806 16.9486 38.0363 18.43C39.6919 19.9113 40.5197 21.9591 40.5197 24.5733C40.5197 27.0132 39.6919 29.0174 38.0363 30.5859C36.3806 32.1544 34.42 32.9386 32.1544 32.9386Z" fill="#A68740"/>
</svg>
