<svg width="135" height="42" viewBox="0 0 135 42" fill="none" xmlns="http://www.w3.org/2000/svg">
<path d="M129.363 0.355957H5.56997C2.6913 0.355957 0.357666 2.68957 0.357666 5.56823V36.4285C0.357666 39.3071 2.6913 41.6407 5.56997 41.6407H129.363C132.242 41.6407 134.576 39.3071 134.576 36.4285V5.56823C134.576 2.68957 132.242 0.355957 129.363 0.355957Z" fill="black"/>
<path d="M23.7327 20.6418L12.3784 31.7763C12.026 31.4955 11.7905 31.0611 11.7905 30.55V10.7371C11.7905 10.2242 12.026 9.79159 12.3784 9.51074L23.7327 20.6453V20.6418Z" fill="#2196F3"/>
<path d="M27.5129 16.9348L23.7327 20.6417L12.3784 9.50717C12.8512 9.12689 13.5367 9.02398 14.1402 9.36413L27.5129 16.9348Z" fill="#4DB151"/>
<path d="M27.5129 24.3485L14.1402 31.9192C13.5367 32.2593 12.8512 32.1564 12.3784 31.7761L23.7327 20.6416L27.5129 24.3485Z" fill="#F44236"/>
<path d="M31.6418 22.0113L27.5128 24.3488L23.7327 20.6419L27.5128 16.9351L31.6418 19.2708C32.7059 19.8726 32.7059 21.4077 31.6418 22.0113Z" fill="#FEC009"/>
<path d="M47.4932 12.1182H50.1081V11.3995H47.4932V9.27312H50.2581V8.54395H46.6245V15.2721H50.4082V14.543H47.4932V12.1182Z" fill="white"/>
<path d="M50.9263 9.28357H52.9725V15.2721H53.8516V9.28357H55.9083V8.54395H50.9263V9.28357Z" fill="white"/>
<path d="M59.6412 8.54395H58.7725V15.2721H59.6412V8.54395Z" fill="white"/>
<path d="M60.3896 9.28357H62.4358V15.2721H63.315V9.28357H65.3716V8.54395H60.3896V9.28357Z" fill="white"/>
<path d="M70.9606 8.43408C69.1639 8.43408 67.8364 9.83135 67.8364 11.9682C67.8364 14.1051 69.0837 15.3821 70.8612 15.3821C72.6388 15.3821 73.9854 14.154 73.9854 11.8392C73.9854 9.84356 72.7975 8.43583 70.9606 8.43583V8.43408ZM70.9118 14.6738C69.5442 14.6738 68.7662 13.3864 68.7662 11.9491C68.7662 10.5117 69.4849 9.14407 70.9223 9.14407C72.3597 9.14407 73.0679 10.5413 73.0679 11.8793C73.0679 13.4074 72.2899 14.6738 70.9118 14.6738Z" fill="white"/>
<path d="M79.3459 8.54395V11.3594C79.3459 12.4078 79.3651 13.2259 79.4454 14.1243L79.4262 14.1348C79.1069 13.4457 78.718 12.7375 78.2191 11.949L76.063 8.54569H75.114V15.2739H75.9321V12.3991C75.9321 11.2809 75.913 10.4733 75.8624 9.62374L75.892 9.61327C76.2322 10.3424 76.6805 11.11 77.1497 11.8601L79.2866 15.2739H80.1658V8.54569H79.3477L79.3459 8.54395Z" fill="white"/>
<path d="M45.5709 11.5409H42.1588V12.4288H44.7876C44.5766 13.69 43.4811 14.6494 42.1588 14.6494C40.6866 14.6494 39.4934 13.4563 39.4934 11.984C39.4934 10.5117 40.6866 9.31856 42.1588 9.31856C42.7816 9.31856 43.3555 9.53138 43.809 9.89073L44.4405 9.25926C43.823 8.74117 43.0276 8.43066 42.1588 8.43066C40.1964 8.43066 38.6055 10.0216 38.6055 11.984C38.6055 13.9465 40.1964 15.5374 42.1588 15.5374C44.1213 15.5374 45.7122 13.9465 45.7122 11.984C45.7122 11.834 45.7035 11.6857 45.6843 11.5392H45.5691L45.5709 11.5409Z" fill="white"/>
<path d="M54.8337 22.1943C53.8098 22.1943 52.8835 22.5729 52.2224 23.2584C51.5246 23.9841 51.1548 25.0011 51.1548 26.2012C51.1548 28.4916 52.6201 30.0895 54.7186 30.0895C55.6798 30.0895 56.5747 29.7476 57.2375 29.1266C58.0051 28.4062 58.4115 27.3543 58.4115 26.0826C58.4115 24.9557 58.0714 23.9858 57.4259 23.2811C56.7753 22.5694 55.8786 22.1943 54.8337 22.1943ZM54.7762 28.6905C53.6667 28.6905 52.8608 27.6247 52.8608 26.1559C52.8608 24.879 53.4627 23.5916 54.8041 23.5916C56.1456 23.5916 56.6898 24.9051 56.6898 26.1262C56.6898 27.6125 55.8839 28.6905 54.7744 28.6905H54.7762Z" fill="white"/>
<path d="M62.7688 22.1943C61.7448 22.1943 60.8186 22.5729 60.1574 23.2584C59.4597 23.9841 59.0898 25.0011 59.0898 26.2012C59.0898 28.4916 60.5552 30.0895 62.6537 30.0895C63.6149 30.0895 64.5097 29.7476 65.1726 29.1266C65.9401 28.4062 66.3466 27.3543 66.3466 26.0826C66.3466 24.9557 66.0064 23.9858 65.361 23.2811C64.7103 22.5694 63.8154 22.1943 62.7688 22.1943ZM64.6249 26.1262C64.6249 27.6125 63.8189 28.6905 62.7095 28.6905C61.6 28.6905 60.7941 27.6247 60.7941 26.1559C60.7941 24.879 61.396 23.5916 62.7374 23.5916C64.0789 23.5916 64.6231 24.9051 64.6231 26.1262H64.6249Z" fill="white"/>
<path d="M72.4189 23.0578C72.0648 22.6531 71.4315 22.1943 70.3866 22.1943C69.5022 22.1943 68.6754 22.5694 68.0544 23.2532C67.381 23.9946 67.0251 25.0133 67.0251 26.2012C67.0251 27.2147 67.3409 28.1462 67.9131 28.8231C68.4992 29.5156 69.3156 29.8976 70.2122 29.8976C71.0251 29.8976 71.7508 29.6028 72.2567 29.076V29.2871C72.2567 30.803 71.5693 31.5705 70.2122 31.5705C69.2074 31.5705 68.5201 31.2007 68.2724 31.042L68.0439 30.8954L67.5938 32.2962L67.7247 32.3851C68.2916 32.7724 69.2283 33.0114 70.1686 33.0114C70.9588 33.0114 72.0665 32.8526 72.8532 32.1008C73.5911 31.4275 73.919 30.3721 73.919 28.68V24.5301C73.919 23.6753 73.947 23.1189 73.9766 22.5781L73.9888 22.3548H72.4555L72.4171 23.0561L72.4189 23.0578ZM72.1799 24.8633C72.2235 24.9959 72.2409 25.1529 72.2409 25.3883V26.674C72.2409 26.899 72.2095 27.1223 72.1502 27.3002C71.9112 28.0206 71.2972 28.4847 70.5855 28.4847C69.2144 28.4847 68.7277 27.2147 68.7277 26.1262C68.7277 24.6365 69.4796 23.6352 70.5995 23.6352C71.4856 23.6352 71.995 24.2684 72.1781 24.8633H72.1799Z" fill="white"/>
<path d="M77.3014 19.0195H75.6094V29.9273H77.3014V19.0195Z" fill="white"/>
<path d="M97.0029 20.3575C96.3662 19.7731 95.3998 19.4766 94.1316 19.4766C93.2664 19.4766 92.4431 19.5428 91.6825 19.6719L91.5081 19.7016V29.9273H93.1844V25.9849C93.4461 26.0233 93.7217 26.0285 93.9868 26.0285C95.3178 26.0285 96.4307 25.6169 97.1163 24.8703C97.6536 24.3051 97.9257 23.541 97.9257 22.5973C97.9257 21.6536 97.5978 20.8843 97.0029 20.3575ZM94.0148 24.572C93.6764 24.572 93.4025 24.5528 93.1844 24.5109V20.982C93.4234 20.9419 93.7758 20.9192 94.1595 20.9192C95.112 20.9192 96.2476 21.221 96.2476 22.6566C96.2476 23.8916 95.4539 24.572 94.0148 24.572Z" fill="white"/>
<path d="M100.772 19.0195H99.0803V29.9273H100.772V19.0195Z" fill="white"/>
<path d="M107.825 28.0013V25.3288C107.825 24.4619 107.642 23.7589 107.281 23.2373C106.801 22.5448 106.018 22.1924 104.955 22.1924C104.062 22.1924 103.183 22.4366 102.541 22.8622L102.405 22.953L102.834 24.2229L103.061 24.0729C103.532 23.7624 104.169 23.5757 104.767 23.5757C105.676 23.5757 106.128 24.0275 106.147 24.9555C104.535 24.9782 103.321 25.3585 102.63 26.0615C102.173 26.5255 101.941 27.1186 101.941 27.8251C101.941 28.4182 102.152 28.9712 102.536 29.3846C102.965 29.8468 103.572 30.0893 104.289 30.0893C105.064 30.0893 105.8 29.791 106.313 29.2799L106.386 29.9271H107.98L107.937 29.6776C107.862 29.252 107.825 28.7042 107.825 28.0013ZM106.178 26.276V27.307C106.178 27.4082 106.156 27.532 106.117 27.6524C105.955 28.1373 105.467 28.7043 104.626 28.7043C104.394 28.7043 103.637 28.6292 103.637 27.6751C103.637 27.3436 103.741 27.0697 103.951 26.8622C104.34 26.4732 105.09 26.2743 106.18 26.2743L106.178 26.276Z" fill="white"/>
<path d="M113.709 22.3562L112.273 26.6946C112.177 26.9807 112.09 27.2772 112.01 27.5511C111.926 27.2772 111.836 26.9894 111.743 26.719L110.161 22.3562H108.317L111.016 29.2257C111.035 29.278 111.091 29.435 111.091 29.4926C111.091 29.5292 111.037 29.6531 111.007 29.7176C110.775 30.2497 110.398 30.7625 109.993 31.0887C109.566 31.4585 109.123 31.6277 108.952 31.6836L108.757 31.7464L109.186 33.2204L109.372 33.1855C109.571 33.1489 110.281 32.9744 111.033 32.2941C111.884 31.5405 112.504 30.391 113.491 27.736L115.506 22.3545H113.707L113.709 22.3562Z" fill="white"/>
<path d="M50.518 23.5723H44.437V25.3341H48.7614C48.3567 27.3681 46.6157 28.8299 44.5678 28.8299C42.2076 28.8299 40.2871 26.8657 40.2871 24.4532C40.2871 22.0407 42.2076 20.0765 44.5678 20.0765C45.5394 20.0765 46.4553 20.401 47.2158 21.015L47.3083 21.09L48.5329 19.8393L48.4282 19.7486C47.3502 18.824 45.979 18.3164 44.5696 18.3164C41.2552 18.3164 38.5583 21.0708 38.5583 24.455C38.5583 27.8391 41.2552 30.5935 44.5696 30.5935C47.8839 30.5935 50.5808 27.8391 50.5808 24.455C50.5808 24.1985 50.5651 23.9404 50.5354 23.6874L50.5215 23.5723H50.518Z" fill="white"/>
<path d="M80.2548 23.3105C78.7755 23.9995 78.179 25.4857 78.404 26.9318C78.6587 28.5698 79.8658 29.6618 81.4689 29.7839C82.7754 29.8834 83.8273 29.4054 84.6297 28.282C84.232 28.0169 83.8622 27.7692 83.4976 27.5267C82.1126 28.7356 80.8147 28.7042 80.1745 27.4342C81.6712 26.8185 83.1644 26.2027 84.6507 25.5904C84.2285 23.5407 82.0951 22.4522 80.253 23.3105H80.2548ZM79.9565 26.2446C79.8588 25.4666 80.3385 24.7548 81.1078 24.4687C81.8073 24.2088 82.458 24.4042 82.8941 25.0479C81.8963 25.4543 80.9333 25.8468 79.9565 26.2446Z" fill="white"/>
</svg>
