<svg width="52" height="84" viewBox="0 0 52 84" fill="none" xmlns="http://www.w3.org/2000/svg">
<path d="M3.131 26.796C3.131 20.316 4.427 9.66 13.691 9.66C22.475 9.66 23.723 19.692 23.723 26.604C23.723 34.044 22.379 43.836 13.259 43.836C4.523 43.836 3.131 34.812 3.131 26.796ZM8.075 27.084C8.075 37.5 8.891 43.02 13.451 43.02C17.963 43.02 18.779 37.5 18.779 25.644C18.779 15.948 17.483 10.428 13.403 10.428C9.179 10.428 8.075 16.14 8.075 27.084ZM30.8949 40.092H48.9909L47.7909 43.5H25.6629V43.116C36.8949 35.58 42.4629 26.844 42.4629 18.54C42.4629 14.268 40.3989 10.86 36.2229 10.86C32.8149 10.86 29.2149 13.5 29.2149 17.964C29.2149 19.308 29.5029 21.228 30.5109 22.908L29.7909 23.292C28.8309 21.468 28.3989 19.692 28.3989 18.012C28.3989 13.308 31.9989 9.612 37.9989 9.612C43.9029 9.612 47.5029 13.02 47.5029 18.684C47.5029 26.796 38.5749 35.196 30.8469 39.948C30.8469 39.948 30.8949 39.996 30.8949 40.092Z" fill="#A68740"/>
<path d="M11.3038 68.656C10.8438 68.656 10.4018 68.584 9.97784 68.44C9.55384 68.296 9.18384 68.09 8.86784 67.822C8.55184 67.55 8.32584 67.228 8.18984 66.856L9.35984 66.418C9.42784 66.61 9.55784 66.782 9.74984 66.934C9.94584 67.082 10.1778 67.198 10.4458 67.282C10.7178 67.366 11.0038 67.408 11.3038 67.408C11.6238 67.408 11.9238 67.356 12.2038 67.252C12.4878 67.148 12.7158 67.004 12.8878 66.82C13.0638 66.636 13.1518 66.42 13.1518 66.172C13.1518 65.916 13.0598 65.706 12.8758 65.542C12.6958 65.378 12.4638 65.248 12.1798 65.152C11.8998 65.056 11.6078 64.984 11.3038 64.936C10.7158 64.84 10.1878 64.7 9.71984 64.516C9.25584 64.332 8.88784 64.074 8.61584 63.742C8.34784 63.41 8.21384 62.978 8.21384 62.446C8.21384 61.946 8.35584 61.51 8.63984 61.138C8.92784 60.766 9.30584 60.478 9.77384 60.274C10.2458 60.066 10.7558 59.962 11.3038 59.962C11.7558 59.962 12.1918 60.034 12.6118 60.178C13.0358 60.318 13.4078 60.524 13.7278 60.796C14.0518 61.064 14.2838 61.39 14.4238 61.774L13.2418 62.2C13.1738 62.004 13.0438 61.834 12.8518 61.69C12.6598 61.542 12.4278 61.426 12.1558 61.342C11.8878 61.258 11.6038 61.216 11.3038 61.216C10.9838 61.212 10.6838 61.264 10.4038 61.372C10.1278 61.476 9.90184 61.62 9.72584 61.804C9.54984 61.988 9.46184 62.202 9.46184 62.446C9.46184 62.746 9.54384 62.974 9.70784 63.13C9.87184 63.286 10.0918 63.402 10.3678 63.478C10.6478 63.55 10.9598 63.616 11.3038 63.676C11.8558 63.764 12.3658 63.91 12.8338 64.114C13.3058 64.318 13.6838 64.59 13.9678 64.93C14.2558 65.266 14.3998 65.68 14.3998 66.172C14.3998 66.668 14.2558 67.104 13.9678 67.48C13.6838 67.852 13.3058 68.142 12.8338 68.35C12.3658 68.554 11.8558 68.656 11.3038 68.656ZM24.8123 60.1V61.348H22.1363V68.5H20.8883V61.348H18.2183V60.1H24.8123ZM29.0169 68.5V60.1H34.2309V61.348H30.2649V63.376H33.4569V64.624H30.2649V67.252H34.2309V68.5H29.0169ZM38.6028 68.5V60.1H41.4948C41.9468 60.1 42.3548 60.212 42.7188 60.436C43.0868 60.66 43.3788 60.962 43.5948 61.342C43.8148 61.722 43.9248 62.142 43.9248 62.602C43.9248 63.07 43.8128 63.494 43.5888 63.874C43.3688 64.25 43.0748 64.55 42.7068 64.774C42.3388 64.998 41.9348 65.11 41.4948 65.11H39.8508V68.5H38.6028ZM39.8508 63.862H41.3688C41.6088 63.862 41.8268 63.802 42.0228 63.682C42.2228 63.562 42.3808 63.402 42.4968 63.202C42.6168 63.002 42.6768 62.776 42.6768 62.524C42.6768 62.272 42.6168 62.046 42.4968 61.846C42.3808 61.642 42.2228 61.482 42.0228 61.366C41.8268 61.246 41.6088 61.186 41.3688 61.186H39.8508V63.862Z" fill="#A68740"/>
</svg>
