<svg width="135" height="42" viewBox="0 0 135 42" fill="none" xmlns="http://www.w3.org/2000/svg">
<path d="M129.363 0.355957H5.56992C2.69126 0.355957 0.357666 2.68957 0.357666 5.56823V36.4285C0.357666 39.3071 2.69126 41.6407 5.56992 41.6407H129.363C132.242 41.6407 134.575 39.3071 134.575 36.4285V5.56823C134.575 2.68957 132.242 0.355957 129.363 0.355957Z" fill="black"/>
<path d="M50.8232 11.1451C50.2668 10.6252 49.4486 10.374 48.3252 10.374C47.7705 10.374 47.2071 10.4159 46.6506 10.5014L46.6035 10.5083V16.5806L46.6523 16.5859C47.0745 16.6347 47.556 16.6591 48.0828 16.6591C49.2829 16.6591 50.2248 16.3521 50.8075 15.7695C51.3901 15.1956 51.6989 14.3652 51.6989 13.3692C51.6989 12.4272 51.4041 11.6788 50.8249 11.1485L50.8232 11.1451ZM48.2345 15.916C48.0182 15.916 47.7129 15.9125 47.4966 15.8794V11.1765C47.6693 11.1416 47.9502 11.1049 48.3601 11.1049C49.1573 11.1049 49.7713 11.316 50.1847 11.7312C50.5755 12.1237 50.7709 12.6836 50.7656 13.3936C50.7656 15.0194 49.8672 15.916 48.2345 15.916Z" fill="white"/>
<path d="M54.5162 12.0312C53.8987 12.0312 53.3405 12.2545 52.9427 12.6575C52.5206 13.0866 52.2991 13.6902 52.2991 14.4019C52.2991 15.7556 53.1817 16.701 54.4447 16.701C55.0255 16.701 55.5646 16.4987 55.964 16.1341C56.428 15.7085 56.6723 15.0857 56.6723 14.3304C56.6723 13.6605 56.4664 13.0866 56.0774 12.6715C55.6866 12.2528 55.1476 12.033 54.5179 12.033L54.5162 12.0312ZM54.4987 12.736C55.3587 12.736 55.7513 13.5768 55.7513 14.3566C55.7513 15.3073 55.2174 15.9963 54.4813 15.9963C53.7451 15.9963 53.2114 15.3142 53.2114 14.3757C53.2114 13.5594 53.6091 12.736 54.4987 12.736Z" fill="white"/>
<path d="M61.935 14.3602C61.8251 14.751 61.7135 15.1679 61.635 15.5813C61.546 15.2062 61.4343 14.8103 61.2913 14.3497L60.604 12.1309H59.8557L59.1317 14.3951C59.0096 14.7928 58.884 15.201 58.7881 15.59C58.7096 15.2045 58.6084 14.812 58.502 14.4021L57.9107 12.1309H56.9827L58.3311 16.6035H59.1317L59.847 14.4928C59.9691 14.1195 60.0946 13.7148 60.201 13.2508C60.2987 13.6746 60.4104 14.0567 60.5447 14.4841L61.2232 16.6035H62.024L63.4648 12.1309H62.563L61.9298 14.3602H61.935Z" fill="white"/>
<path d="M66.3588 12.0311C65.6663 12.0311 65.19 12.3835 64.944 12.7515L64.9057 12.1288H64.0911L64.0963 12.1881C64.1207 12.523 64.1329 12.8754 64.1329 13.3638V16.5997H65.0365V13.922C65.0365 13.7877 65.0557 13.6604 65.0888 13.5679C65.2057 13.1842 65.565 12.7951 66.0988 12.7951C66.8873 12.7951 67.0531 13.4668 67.0531 14.0285V16.598H67.9566V13.9377C67.9566 12.1183 66.6274 12.0259 66.3605 12.0259L66.3588 12.0311Z" fill="white"/>
<path d="M70.0361 10.0933H69.1326V16.6016H70.0361V10.0933Z" fill="white"/>
<path d="M73.162 12.0312C72.5445 12.0312 71.9863 12.2545 71.5886 12.6575C71.1664 13.0866 70.9448 13.6902 70.9448 14.4019C70.9448 15.7556 71.8275 16.701 73.0905 16.701C73.6714 16.701 74.2104 16.4987 74.6099 16.1341C75.0739 15.7085 75.3181 15.0857 75.3181 14.3304C75.3181 13.6605 75.1122 13.0866 74.7232 12.6715C74.3325 12.2528 73.7935 12.033 73.1637 12.033L73.162 12.0312ZM73.1446 12.736C74.0046 12.736 74.397 13.5768 74.397 14.3566C74.397 15.3073 73.8633 15.9963 73.1271 15.9963C72.391 15.9963 71.8572 15.3142 71.8572 14.3757C71.8572 13.5594 72.2549 12.736 73.1446 12.736Z" fill="white"/>
<path d="M79.3808 15.5028V13.8718C79.3808 13.0328 79.0841 12.0332 77.6677 12.0332C77.1252 12.0332 76.5932 12.178 76.2042 12.4292L76.1676 12.4519L76.3838 13.0816L76.4431 13.0432C76.7484 12.8461 77.1619 12.7275 77.5491 12.7275C78.1701 12.7275 78.4859 13.0485 78.4859 13.6817V13.7166C77.4637 13.7183 76.6978 13.9451 76.2705 14.369C76.0001 14.6376 75.8623 14.983 75.8623 15.3929C75.8623 16.0227 76.2967 16.7012 77.2508 16.7012C77.7794 16.7012 78.2644 16.4814 78.5696 16.1081L78.6254 16.6018H79.461L79.4487 16.5373C79.4016 16.2739 79.3773 15.9354 79.3773 15.5011L79.3808 15.5028ZM77.4601 16.0052C77.1252 16.0052 76.7676 15.8203 76.7676 15.304C76.7676 15.0807 76.8409 14.8975 76.9857 14.7562C77.2439 14.5033 77.7306 14.3759 78.4318 14.3759C78.4562 14.3759 78.4806 14.3759 78.5051 14.3759V15.0789C78.5051 15.1487 78.4893 15.2324 78.4632 15.3127C78.3533 15.6319 78.0253 16.0052 77.4601 16.0052Z" fill="white"/>
<path d="M84.4274 15.4207V10.0933H83.5239V12.5965C83.257 12.2406 82.7895 12.0313 82.2452 12.0313C81.7394 12.0313 81.2631 12.2302 80.9055 12.5913C80.4677 13.0308 80.2304 13.6832 80.2357 14.4298C80.2357 15.7469 81.0433 16.7011 82.1562 16.7011C82.772 16.7011 83.3163 16.4185 83.6146 15.9527L83.646 16.6016H84.4711L84.4659 16.5423C84.4345 16.1987 84.4292 15.6928 84.4292 15.4207H84.4274ZM82.3813 15.951C81.4707 15.951 81.148 15.1119 81.148 14.3932C81.148 13.4181 81.6504 12.7622 82.4005 12.7622C83.0128 12.7622 83.3895 13.2018 83.4925 13.6414C83.5134 13.7199 83.5274 13.8385 83.5274 13.9606V14.7177C83.5274 14.8503 83.5169 14.9514 83.4925 15.0474C83.3616 15.5881 82.9151 15.951 82.3831 15.951H82.3813Z" fill="white"/>
<path d="M89.4478 12.0312C88.8303 12.0312 88.2721 12.2545 87.8744 12.6575C87.4522 13.0866 87.2307 13.6902 87.2307 14.4019C87.2307 15.7556 88.1133 16.701 89.3763 16.701C89.9572 16.701 90.4962 16.4987 90.894 16.1341C91.358 15.7085 91.6022 15.0857 91.6022 14.3304C91.6022 13.6605 91.3963 13.0866 91.0073 12.6715C90.6166 12.2528 90.0776 12.033 89.4478 12.033V12.0312ZM89.4287 12.736C90.2887 12.736 90.6811 13.5768 90.6811 14.3566C90.6811 15.3073 90.1474 15.9963 89.4112 15.9963C88.6751 15.9963 88.1412 15.3142 88.1412 14.3757C88.1412 13.5594 88.539 12.736 89.4287 12.736Z" fill="white"/>
<path d="M94.7194 12.0311C94.0269 12.0311 93.5507 12.3835 93.3047 12.7515L93.2664 12.1288H92.4517L92.4569 12.1881C92.4814 12.523 92.4936 12.8754 92.4936 13.3638V16.5997H93.3972V13.922C93.3972 13.7877 93.4164 13.6604 93.4495 13.5679C93.5664 13.1842 93.9257 12.7951 94.4595 12.7951C95.248 12.7951 95.4137 13.4668 95.4137 14.0285V16.598H96.3173V13.9377C96.3173 12.1183 94.9881 12.0259 94.7212 12.0259L94.7194 12.0311Z" fill="white"/>
<path d="M100.469 10.8608L99.5845 11.0981V12.1308H98.9094V12.8442H99.5845V15.1678C99.5845 15.7399 99.6875 16.1132 99.9038 16.34C100.106 16.5703 100.417 16.6924 100.802 16.6924C101.093 16.6924 101.35 16.6523 101.526 16.5807L101.563 16.565L101.521 15.8638L101.456 15.8812C101.369 15.9057 101.221 15.9336 101.011 15.9336C100.633 15.9336 100.472 15.6963 100.472 15.1416V12.8442H101.608V12.1308H100.472V10.8608H100.469Z" fill="white"/>
<path d="M105.65 12.4133C105.268 12.0679 104.811 12.0313 104.631 12.0313C104.347 12.0313 104.057 12.1115 103.794 12.2633C103.595 12.375 103.419 12.5302 103.29 12.7099V10.0933H102.386V16.6016H103.29V13.9153C103.29 13.7687 103.298 13.6571 103.34 13.5576V13.5542C103.468 13.1774 103.829 12.7988 104.354 12.7988C105.184 12.7988 105.308 13.5768 105.308 14.0408V16.6016H106.211V13.9519C106.211 13.2681 106.023 12.75 105.652 12.4133H105.65Z" fill="white"/>
<path d="M110.654 12.7831C110.33 12.2912 109.819 12.0312 109.174 12.0312C107.937 12.0312 107.073 13.0203 107.073 14.4385C107.073 15.1066 107.276 15.6701 107.658 16.0695C108.047 16.4777 108.607 16.6923 109.273 16.6923C109.986 16.6923 110.468 16.5423 110.747 16.4167L110.789 16.3975L110.628 15.7224L110.569 15.7486C110.299 15.8637 109.967 15.9701 109.383 15.9701C108.514 15.9701 107.98 15.4468 107.944 14.5659H111L111.01 14.4804C111.021 14.3984 111.033 14.285 111.033 14.142C111.033 13.9048 110.996 13.2994 110.656 12.7831H110.654ZM107.958 13.8873C108.029 13.4215 108.341 12.7081 109.111 12.7081C109.409 12.7081 109.65 12.7988 109.828 12.9802C110.11 13.268 110.152 13.6989 110.156 13.8873H107.958Z" fill="white"/>
<path d="M51.3151 20.2925H49.4748L45.7034 31.3904H47.3675L48.4996 27.9609H52.2222L53.3874 31.3904H55.1005L51.3361 20.3587L51.3134 20.2925H51.3151ZM50.3557 21.9723C50.4935 22.5061 50.64 23.0591 50.8441 23.6574L51.8664 26.6648H48.859L49.883 23.64C50.0417 23.1428 50.1934 22.6055 50.3557 21.9741V21.9723Z" fill="white"/>
<path d="M60.5604 23.1865C59.3986 23.1865 58.4618 23.654 57.8321 24.5437L57.7745 23.3645H56.3005L56.3057 23.4674C56.3406 24.2506 56.3703 25.0338 56.3703 26.0177V34.5914H57.9752V30.5113C58.488 31.1776 59.3427 31.5666 60.3179 31.5666C61.293 31.5666 62.2054 31.1829 62.8595 30.4886C63.5887 29.7141 63.9741 28.5994 63.9741 27.2632C63.9741 26.1014 63.6288 25.0565 63.0025 24.3186C62.3815 23.5877 61.5145 23.1865 60.5604 23.1865ZM60.1243 24.5175C61.6646 24.5175 62.3536 25.9305 62.3536 27.3295C62.3536 29.1349 61.4797 30.2548 60.0754 30.2548C59.1073 30.2548 58.2874 29.6164 58.0362 28.6657C58.0048 28.4913 57.9734 28.3046 57.9734 28.104V26.7608C57.9734 26.5724 58.024 26.3648 58.0676 26.2026C58.324 25.2083 59.1684 24.514 60.1226 24.514L60.1243 24.5175Z" fill="white"/>
<path d="M69.7641 23.1865C68.6023 23.1865 67.6655 23.654 67.0358 24.5437L66.9782 23.3645H65.5042L65.5094 23.4674C65.5443 24.2506 65.574 25.0338 65.574 26.0177V34.5914H67.1788V30.5113C67.6916 31.1776 68.5464 31.5666 69.5216 31.5666C70.4967 31.5666 71.409 31.1829 72.0631 30.4886C72.7923 29.7141 73.1778 28.5994 73.1778 27.2632C73.1778 26.1014 72.8325 25.0565 72.2062 24.3186C71.5852 23.5877 70.7182 23.1865 69.7641 23.1865ZM69.3262 24.5175C70.8665 24.5175 71.5573 25.9305 71.5573 27.3295C71.5573 29.1349 70.6833 30.2548 69.2791 30.2548C68.3109 30.2548 67.4911 29.6164 67.2399 28.6657C67.2085 28.4913 67.1771 28.3046 67.1771 28.104V26.7608C67.1771 26.5724 67.2277 26.3648 67.2713 26.2026C67.5277 25.2083 68.372 24.514 69.3262 24.514V24.5175Z" fill="white"/>
<path d="M81.6538 25.0218C80.0612 24.406 79.5501 23.9175 79.5501 23.0105C79.5501 22.2464 80.1554 21.4754 81.5055 21.4754C82.4109 21.4754 83.1052 21.751 83.5291 21.9812L83.632 22.0371L84.0838 20.7009L84.0123 20.6607C83.6512 20.4566 82.854 20.1147 81.5544 20.1147C80.5025 20.1147 79.5954 20.4148 78.9325 20.9817C78.2854 21.5347 77.9295 22.3127 77.9295 23.1727C77.9295 24.631 78.8645 25.6428 80.8723 26.3545C82.3237 26.9127 82.8627 27.4744 82.8627 28.4303C82.8627 29.5171 82.0271 30.1922 80.6804 30.1922C79.8414 30.1922 78.9186 29.9323 78.2086 29.4944L78.0987 29.4264L77.6853 30.7992L77.7464 30.8393C78.3656 31.2528 79.5588 31.551 80.5827 31.551C81.8108 31.551 82.8278 31.2179 83.5221 30.5881C84.1518 30.016 84.499 29.2101 84.499 28.3152C84.499 27.5058 84.2617 26.8516 83.7733 26.3143C83.3197 25.8154 82.6464 25.4038 81.6538 25.0218Z" fill="white"/>
<path d="M88.0418 21.0882L86.4526 21.5138V23.3664H85.2402V24.6468H86.4526V28.8176C86.4526 29.8433 86.6358 30.5132 87.0282 30.9214C87.3893 31.3331 87.9458 31.5511 88.6383 31.5511C89.1599 31.5511 89.6222 31.4796 89.9379 31.3487L90.0024 31.3226L89.9257 30.0631L89.8088 30.0945C89.6518 30.1364 89.3867 30.1887 89.0099 30.1887C88.3313 30.1887 88.0418 29.7631 88.0418 28.767V24.645H90.0792V23.3646H88.0418V21.0864V21.0882Z" fill="white"/>
<path d="M94.7995 23.1868C93.6918 23.1868 92.6888 23.5863 91.9754 24.3119C91.2183 25.0812 90.8188 26.1645 90.8188 27.4414C90.8188 29.8714 92.4028 31.5669 94.6705 31.5669C95.7119 31.5669 96.6801 31.2058 97.3953 30.5482C98.2274 29.7841 98.667 28.666 98.667 27.3123C98.667 26.1122 98.2971 25.0812 97.5994 24.3329C96.8981 23.5828 95.9299 23.1851 94.7995 23.1851V23.1868ZM94.7351 30.304C93.4146 30.304 92.4569 29.0811 92.4569 27.3943C92.4569 25.9308 93.1721 24.4532 94.7682 24.4532C96.3643 24.4532 97.015 25.9621 97.015 27.3629C97.015 29.0672 96.0573 30.304 94.7368 30.304H94.7351Z" fill="white"/>
<path d="M103.825 23.1866C102.913 23.1866 102.1 23.7605 101.681 24.6728L101.639 23.3645H100.193L100.2 23.4692C100.246 24.1373 100.265 24.8891 100.265 25.9044V31.3888H101.87V27.1167C101.87 26.8812 101.901 26.658 101.932 26.4713C102.126 25.4107 102.836 24.7252 103.743 24.7252C103.923 24.7252 104.061 24.7391 104.207 24.7705L104.328 24.7967V23.2546L104.253 23.2354C104.104 23.1988 103.984 23.1831 103.823 23.1831L103.825 23.1866Z" fill="white"/>
<path d="M111.254 24.5349C110.674 23.6523 109.754 23.1865 108.596 23.1865C107.438 23.1865 106.517 23.6226 105.829 24.4477C105.182 25.2257 104.826 26.3108 104.826 27.5074C104.826 28.7041 105.189 29.7176 105.875 30.4345C106.574 31.1654 107.577 31.5527 108.774 31.5527C110.056 31.5527 110.92 31.284 111.418 31.059L111.493 31.0259L111.206 29.8135L111.097 29.8589C110.613 30.0647 110.018 30.2548 108.969 30.2548C107.41 30.2548 106.45 29.3146 106.386 27.7359H111.872L111.882 27.6487C111.884 27.6278 111.888 27.6051 111.889 27.5824C111.907 27.4341 111.931 27.23 111.931 26.9754C111.931 26.5497 111.865 25.4612 111.256 24.5367L111.254 24.5349ZM108.483 24.4041C109.018 24.4041 109.451 24.5681 109.768 24.8926C110.276 25.4089 110.349 26.1817 110.356 26.5201H106.412C106.541 25.6863 107.101 24.4041 108.483 24.4041Z" fill="white"/>
<path d="M36.978 26.6511C33.3426 24.9399 33.2449 21.7563 33.2624 21.1353C33.2624 21.1266 33.2624 21.1214 33.2624 21.1179C33.2502 18.9199 34.2358 17.2505 36.2732 16.012L36.3012 15.9946L36.2819 15.9684C35.1481 14.3461 33.4159 13.4338 31.1342 13.2576C29.7631 13.1494 28.2926 13.6937 27.218 14.0914C26.5848 14.3252 26.0842 14.5101 25.7754 14.5101C25.3934 14.5101 24.7968 14.2955 24.1078 14.0461C23.164 13.7059 22.0947 13.3186 21.1528 13.3186C19.3769 13.3466 17.6378 14.0932 16.3835 15.3648C14.9287 16.8406 14.1594 18.9304 14.1594 21.4074C14.1594 22.9879 14.4525 24.6451 15.0316 26.3302C15.4503 27.5321 16.3696 29.4404 17.4755 30.9929C18.435 32.3379 19.9002 33.9288 21.4754 33.927C21.4999 33.927 21.5243 33.927 21.547 33.927C22.2517 33.9096 22.8605 33.6793 23.5042 33.4351C24.2717 33.1438 25.0637 32.8438 26.1313 32.8438C27.1169 32.8438 27.8617 33.1316 28.5804 33.4089C29.2712 33.6758 29.9236 33.927 30.754 33.927C32.3762 33.9043 33.7997 32.3902 34.7085 31.1238C35.8214 29.5747 36.6326 27.7658 36.9902 26.6878L36.9989 26.6616L36.9745 26.6494L36.978 26.6511Z" fill="white"/>
<path d="M25.5731 13.2855H25.5993C25.7022 13.296 25.8068 13.2995 25.9098 13.2995C27.3018 13.2995 28.652 12.579 29.8294 11.2009C31.4744 9.24895 31.3401 7.47665 31.2895 6.81029L31.286 6.76318H31.2563C29.8277 6.84866 28.1286 7.72087 27.1274 8.88613C25.9848 10.1787 25.4457 11.6911 25.5713 13.2593V13.2855H25.5731Z" fill="white"/>
</svg>
