<svg width="56" height="56" viewBox="0 0 56 56" fill="none" xmlns="http://www.w3.org/2000/svg">
<rect x="0.5" y="0.5" width="55" height="55" rx="27.5" stroke="#A68740"/>
<path d="M37.4533 40.0933C36.76 40.84 35.8266 41.1733 34.7866 41.08C26.2933 40.0266 16.24 29.9333 16.0133 21.52C16.0933 19.92 17.7733 18.8933 18.76 17.7733L19.0266 17.52L19.92 16.6266L20.72 17.3866L20.96 17.6C20.96 17.6 21.0266 17.6666 21.0533 17.6933C21.3866 18.0133 21.7066 18.3333 22.0533 18.68C22.8133 19.48 24.48 21.1333 25.28 21.9333L24.4933 22.7333L24.4666 22.76L22.2266 24.9866C21.76 25.4266 21.8 25.9066 21.9333 26.24C21.9333 26.2533 21.9333 26.2666 21.9466 26.28C23.24 29.3733 26.52 32.5733 29.2133 34.2933C29.6533 34.5466 30.5866 35.04 30.6133 35.0533C31.1733 35.3466 31.7333 35.0667 31.9733 34.8133C32.8533 33.92 34.1466 32.6666 35.0266 31.7866C36.68 33.36 38.68 35.4267 40.3066 37.04L41.28 36H41.2666L39.7466 34.5466C38.28 33.0666 36.52 31.28 35.0533 29.8133C33.8266 31.04 32.3333 32.5333 31.0933 33.7466C28.68 32.5466 26.84 30.8533 24.9466 28.5866C24.16 27.5866 23.6266 26.7466 23.2533 25.88L27.2133 21.96C26.7733 21.5066 25.88 20.6133 25.4533 20.1733C25.2933 20.0133 24.7333 19.4533 24.5733 19.2933L24.24 18.9466L23.5866 18.3066C23.4 18.1066 23.2133 17.92 23.0266 17.7333C22.7066 17.3866 22.36 17.04 22.0266 16.72C21.4666 16.2 20.52 15.2133 19.9733 14.6666C19.48 15.1466 18.5333 16.08 18.0533 16.5733C17.6133 16.9733 16.36 18.2666 15.92 18.6933C15.1733 19.44 14.7466 20.3466 14.6666 21.4133C14.7466 30.5333 25.4933 41.32 34.6933 42.4266C36.1733 42.4933 37.48 42.0666 38.4533 40.9866L39 40.3733L41.24 37.92L40.3066 37.0533L37.4533 40.0933Z" fill="#A68740"/>
</svg>
