<svg width="56" height="56" viewBox="0 0 56 56" fill="none" xmlns="http://www.w3.org/2000/svg">
<rect x="0.5" y="0.5" width="55" height="55" rx="27.5" stroke="#A68740"/>
<path d="M28 41.0667C20.8 41.0667 14.9333 35.2 14.9333 28C14.9333 20.8 20.8 14.9333 28 14.9333C35.2 14.9333 41.0667 20.8 41.0667 28C41.0667 35.2 35.2 41.0667 28 41.0667ZM28.52 40.0267H28.8C29.64 39.96 30.4667 39.8133 31.2533 39.5867L31.3734 39.5467L31.4267 39.4267C32.04 37.96 32.5467 36.44 32.92 34.8933L32.9867 34.6267L32.72 34.5733C31.44 34.2933 30.12 34.12 28.7867 34.0667H28.5067V40.0133L28.52 40.0267ZM27.2134 34.08C25.88 34.1333 24.56 34.2933 23.28 34.5867L23.0134 34.64L23.08 34.9067C23.4534 36.4533 23.96 37.9867 24.5734 39.44L24.6267 39.56L24.7467 39.6C25.5467 39.8267 26.3734 39.96 27.2 40.0133H27.48V34.0667H27.2L27.2134 34.08ZM21.7467 34.9867C20.9333 35.24 20.12 35.5333 19.36 35.8667L19.0134 36.0133L19.28 36.2933C20.28 37.3467 21.44 38.2 22.72 38.8267L23.32 39.12L23.0933 38.4933C22.6933 37.4133 22.36 36.3067 22.0933 35.1733L22.0267 34.8933L21.76 34.9733L21.7467 34.9867ZM33.92 35.1733C33.6534 36.2933 33.3067 37.4133 32.92 38.4933L32.6934 39.12L33.2934 38.8267C34.5734 38.2 35.7333 37.3467 36.7333 36.2933L37 36.0133L36.6533 35.8667C35.8933 35.5333 35.0934 35.2267 34.2667 34.9867L34 34.9067L33.9334 35.1867L33.92 35.1733ZM34.7467 28.7733C34.7067 30.4133 34.5333 32.0533 34.24 33.6533L34.2 33.8933L34.4267 33.96C35.4667 34.2667 36.48 34.6533 37.4534 35.1067L37.6533 35.2L37.7867 35.0267C39.0933 33.2 39.8667 31.0533 40.0133 28.8V28.52H34.76V28.7867L34.7467 28.7733ZM15.9867 28.8C16.1333 31.0533 16.9067 33.2 18.2133 35.0267L18.3467 35.2L18.5467 35.1067C19.52 34.6533 20.5467 34.2667 21.5733 33.96L21.8 33.8933L21.76 33.6533C21.4667 32.0533 21.2933 30.4133 21.2533 28.7733V28.5067H15.9733V28.7867L15.9867 28.8ZM28.52 33.04H28.7733C30.1734 33.0933 31.5734 33.2667 32.9333 33.5733L33.2 33.6267L33.2533 33.36C33.5333 31.8667 33.6933 30.32 33.7333 28.7867V28.5067H28.52V33.0267V33.04ZM22.28 28.7867C22.32 30.3333 22.48 31.8667 22.76 33.36L22.8133 33.6267L23.08 33.5733C24.4267 33.2667 25.8267 33.0933 27.24 33.0533H27.4934V28.52H22.28V28.8V28.7867ZM37.4534 20.8933C36.48 21.3467 35.4667 21.7333 34.4267 22.04L34.2 22.1067L34.24 22.3467C34.5333 23.9467 34.7067 25.5867 34.7467 27.2267V27.4933H40.0267V27.2133C39.8667 24.96 39.0933 22.8133 37.7733 20.9867L37.64 20.8133L37.44 20.9067L37.4534 20.8933ZM32.9333 22.4267C31.5867 22.7333 30.1867 22.9067 28.7733 22.9467H28.52V27.48H33.7333V27.2C33.6933 25.6667 33.5333 24.1333 33.2533 22.6267L33.2 22.36L32.9333 22.4133V22.4267ZM22.7467 22.64C22.4667 24.1333 22.3067 25.6667 22.2667 27.2133V27.4933H27.48V22.9733H27.2267C25.8134 22.92 24.4267 22.7467 23.0667 22.44L22.8 22.3867L22.7467 22.6533V22.64ZM18.2133 20.9867C16.9067 22.8133 16.1333 24.96 15.9867 27.2133V27.4933H21.24V27.2267C21.28 25.5867 21.4533 23.9467 21.76 22.3467L21.8 22.1067L21.5733 22.04C20.5333 21.7333 19.52 21.3467 18.5467 20.8933L18.3467 20.8L18.2133 20.9733V20.9867ZM28.52 21.9333H28.8C30.1334 21.88 31.4534 21.7067 32.7334 21.4267L33 21.3733L32.9333 21.1067C32.56 19.56 32.0534 18.04 31.44 16.56L31.3867 16.44L31.2667 16.4C30.4667 16.1733 29.64 16.04 28.8133 15.9867H28.5333V21.9333H28.52ZM27.2 15.9867C26.36 16.04 25.5334 16.1867 24.7467 16.4L24.6267 16.44L24.5734 16.56C23.96 18.0267 23.4534 19.56 23.08 21.1067L23.0134 21.3733L23.28 21.4267C24.56 21.7067 25.88 21.88 27.2134 21.9333H27.4934V15.9867H27.2134H27.2ZM32.9067 17.5067C33.3067 18.5867 33.64 19.7067 33.9067 20.8267L33.9734 21.1067L34.24 21.0267C35.0534 20.7867 35.8533 20.48 36.6267 20.1467L36.9733 20L36.7067 19.72C35.7067 18.6667 34.5467 17.8133 33.2667 17.1867L32.6667 16.8933L32.8934 17.52L32.9067 17.5067ZM22.72 17.1733C21.4267 17.8 20.28 18.6533 19.28 19.7067L19.0134 19.9867L19.36 20.1333C20.1333 20.48 20.9333 20.7733 21.7467 21.0133L22.0134 21.0933L22.08 20.8133C22.3467 19.6933 22.6934 18.5733 23.08 17.4933L23.3067 16.8667L22.7067 17.16L22.72 17.1733Z" fill="#A68740"/>
</svg>
