<?xml version="1.0" encoding="UTF-8"?>
<svg id="Layer_1" data-name="Layer 1" xmlns="http://www.w3.org/2000/svg" viewBox="0 0 77.98 23.5">
  <defs>
    <style>
      .cls-1 {
        fill: #255487;
        fill-rule: evenodd;
      }
    </style>
  </defs>
  <path class="cls-1" d="M64.66,19.28h2.28v-7.09h2.45v-2.26h-7.25v2.26h2.52v7.09ZM29.17,19.28h2.47v-2.84h1.08l1.8,2.84h2.86l-2.13-3.26c1.11-.49,1.84-1.45,1.84-2.88v-.03c0-.92-.27-1.65-.79-2.18-.6-.64-1.54-1.02-2.91-1.02h-4.22v9.36ZM31.64,14.41v-2.25h1.62c.83,0,1.34.37,1.34,1.11v.03c0,.68-.49,1.11-1.33,1.11h-1.63ZM48.44,19.27h2.2v-4.7l6.27,4.76v-9.41h-2.2v4.62l-6.27-4.58v9.3ZM58.45,19.27h2.28v-9.34h-2.28v9.34ZM73.38,15.6h2.81v-2.05h-2.81v2.05ZM70.44,19.29v-9.36h6.59l-.75,2.02h-3.47v5.32h3.53l.75,2.02h-6.66ZM12.4,1.71l6.81-1.44v19.01h-2.27v-7.87h-2.28v7.87h-2.27V1.71ZM15.8,7.61c-.69,0-1.25.56-1.25,1.25s.56,1.25,1.25,1.25,1.25-.56,1.25-1.25-.56-1.25-1.25-1.25ZM.88,9.93h3.3l3.17,5.49,1.04-1.88-2.08-3.6h4.67l-5.04,9.4L.88,9.93ZM42.85,10.11c2.57,0,4.65,2.08,4.65,4.65s-2.08,4.65-4.65,4.65-4.65-2.08-4.65-4.65,2.08-4.65,4.65-4.65ZM42.85,12.06c-1.49,0-2.71,1.21-2.71,2.7s1.21,2.7,2.71,2.7,2.7-1.21,2.7-2.7-1.21-2.7-2.7-2.7ZM23.16,19.28h2.28v-7.09h2.45v-2.26h-7.25v2.26h2.52v7.09Z"/>
</svg>