<svg width="64" height="64" viewBox="0 0 64 64" fill="none" xmlns="http://www.w3.org/2000/svg">
<rect x="0.5" y="0.5" width="63" height="63" rx="31.5" stroke="#A68740"/>
<path d="M33.1001 13.0249V30.8999H50.9751V13.0249H33.1001ZM34.3834 19.4599L39.5351 14.3082H44.5401L49.6918 19.4599V24.4649L44.5401 29.6166H39.5351L34.3834 24.4649V19.4599ZM49.6918 17.6449L46.3551 14.3082H49.6918V17.6449ZM37.7201 14.3082L34.3834 17.6449V14.3082H37.7201ZM34.3834 26.2799L37.7201 29.6166H34.3834V26.2799ZM46.3551 29.6166L49.6918 26.2799V29.6166H46.3551Z" fill="#A68740"/>
<path d="M30.8999 16.49H13.0249V24.8867H14.3082V22.9433L19.4599 17.7917H24.4649L29.6166 22.9433V27.9483L24.4649 33.1H19.4599L14.3082 27.9483V26.005H13.0249V50.9933H38.0132V49.71H36.0699L30.9182 44.5583V39.5533L36.0699 34.4017H41.0749L46.2266 39.5533V44.5583L41.0749 49.71H39.1316V50.9933H47.5282V33.1183H30.9366V16.49H30.8999ZM14.3082 39.535L19.4599 34.3833H24.4649L29.6166 39.535V44.54L24.4649 49.6917H19.4599L14.3082 44.54V39.535ZM14.3082 37.72V34.3833H17.6449L14.3082 37.72ZM29.6166 37.72L26.2799 34.3833H29.6166V37.72ZM14.3082 21.1283V17.7917H17.6449L14.3082 21.1283ZM26.2799 17.7733H29.6166V21.11L26.2799 17.7733ZM29.6166 29.745V33.0817H26.2799L29.6166 29.745ZM17.6449 33.1H14.3082V29.7633L17.6449 33.1ZM14.3082 46.355L17.6449 49.6917H14.3082V46.355ZM26.2799 49.6917L29.6166 46.355V49.6917H26.2799ZM34.2549 49.6917H30.9182V46.355L34.2549 49.6917ZM42.8899 49.6917L46.2266 46.355V49.6917H42.8899ZM46.2266 37.72L42.8899 34.3833H46.2266V37.72ZM34.2549 34.3833L30.9182 37.72V34.3833H34.2549Z" fill="#A68740"/>
<path d="M21.3301 46.4651H22.6135C22.6135 44.3751 24.3185 42.6884 26.4085 42.6884V41.4051C24.3185 41.4051 22.6135 39.7001 22.6135 37.6284H21.3301C21.3301 39.7184 19.6251 41.4051 17.5535 41.4051V42.6884C19.6435 42.6884 21.3301 44.3934 21.3301 46.4651ZM21.9718 40.0668C22.4301 40.8918 23.1085 41.5701 23.9335 42.0284C23.1085 42.4868 22.4301 43.1651 21.9718 43.9901C21.5135 43.1651 20.8351 42.4868 20.0101 42.0284C20.8351 41.5701 21.5135 40.8918 21.9718 40.0668Z" fill="#A68740"/>
<path d="M41.3868 26.3899H42.6701C42.6701 24.2999 44.3751 22.6132 46.4468 22.6132V21.3299C44.3568 21.3299 42.6701 19.6249 42.6701 17.5532H41.3868C41.3868 19.6432 39.6818 21.3299 37.5918 21.3299V22.6132C39.6818 22.6132 41.3868 24.3182 41.3868 26.3899ZM42.0285 20.0099C42.4868 20.8349 43.1651 21.5132 43.9901 21.9716C43.1651 22.4299 42.4868 23.1082 42.0285 23.9332C41.5701 23.1082 40.8918 22.4299 40.0668 21.9716C40.8918 21.5132 41.5701 20.8349 42.0285 20.0099Z" fill="#A68740"/>
<path d="M22.6135 29.855C22.6135 27.765 24.3185 26.0783 26.4085 26.0783V24.795C24.3185 24.795 22.6135 23.09 22.6135 21.0183H21.3301C21.3301 23.1083 19.6251 24.795 17.5535 24.795V26.0783C19.6435 26.0783 21.3301 27.7833 21.3301 29.855H22.6135ZM20.0101 25.4366C20.8351 24.9783 21.5135 24.3 21.9718 23.475C22.4301 24.3 23.1085 24.9783 23.9335 25.4366C23.1085 25.895 22.4301 26.5733 21.9718 27.3983C21.5135 26.5733 20.8351 25.895 20.0101 25.4366Z" fill="#A68740"/>
<path d="M42.9998 42.6701V41.3868C40.9098 41.3868 39.2231 39.6818 39.2231 37.6101H37.9398C37.9398 39.7001 36.2348 41.3868 34.1631 41.3868V42.6701C36.2531 42.6701 37.9398 44.3751 37.9398 46.4468H39.2231C39.2231 44.3568 40.9281 42.6701 42.9998 42.6701ZM36.6014 42.0284C37.4264 41.5701 38.1048 40.8918 38.5631 40.0668C39.0214 40.8918 39.6998 41.5701 40.5248 42.0284C39.6998 42.4868 39.0214 43.1651 38.5631 43.9901C38.1048 43.1651 37.4264 42.4868 36.6014 42.0284Z" fill="#A68740"/>
<path d="M41.4784 15.2434H40.3784V16.5267H41.4784V15.2434Z" fill="#A68740"/>
<path d="M43.6784 15.2434H42.5784V16.5267H43.6784V15.2434Z" fill="#A68740"/>
</svg>
