<svg width="260" height="63" viewBox="0 0 260 63" fill="none" xmlns="http://www.w3.org/2000/svg">
<path fill-rule="evenodd" clip-rule="evenodd" d="M100.677 46.3177C100.14 48.7008 99.4778 50.18 98.8161 50.9606C98.0717 51.8235 97.0791 52.1522 96.0038 52.1522C94.9284 52.1522 94.7217 52.0289 93.605 51.9467L89.5933 61.5202C93.2741 62.2598 96.2933 62.7118 98.8988 62.7118C101.504 62.7118 104.441 62.1776 106.385 60.9861C108.246 60 109.735 58.5208 110.727 56.6719C111.72 54.8229 112.671 51.9467 113.54 47.5092L120.694 13.6938H107.46L100.636 46.3177H100.677Z" fill="white"/>
<path fill-rule="evenodd" clip-rule="evenodd" d="M110.189 0.422363L108.37 9.58498H121.563L123.548 0.422363H110.189Z" fill="white"/>
<path fill-rule="evenodd" clip-rule="evenodd" d="M60.6839 0.422363H41.0388L21.8487 18.7476L25.6536 0.422363H11.0129L0.962891 48.5775H15.5623L17.961 36.8263L27.2666 28.8552L33.1394 48.5775H51.337L39.4259 18.6243L60.6839 0.422363Z" fill="white"/>
<path fill-rule="evenodd" clip-rule="evenodd" d="M92.7362 44.8795C92.7362 44.0167 92.8603 42.7429 93.2738 41.0173L96.4171 25.7325C96.8306 24.1301 96.8306 22.4044 96.6238 20.6787C96.293 18.8298 95.6313 17.4328 94.7627 16.3645C93.4806 14.9675 91.6195 14.1046 89.3448 13.5705C86.9461 13.2418 83.9269 12.9131 80.0393 12.9131C76.1516 12.9131 77.0201 13.0363 75.614 13.2418C74.7454 13.2418 73.8769 13.3651 73.0084 13.4472C70.8578 13.8581 68.9967 14.3101 67.5905 15.0497C65.8535 16.0358 64.2405 17.1862 63.1652 18.3778C61.9658 19.6515 60.8905 21.3772 60.022 23.637L72.264 24.9108C73.2566 23.5138 74.001 22.5277 74.9936 21.9114C75.2004 21.7059 75.4072 21.7059 75.6553 21.5826C76.8547 21.1718 78.2609 20.8431 80.0806 20.8431C81.9004 20.8431 82.893 21.2539 83.4306 21.9114C83.9683 22.5688 84.0924 23.637 83.6374 25.3627C81.9004 26.0201 80.2874 26.5543 78.7572 26.883C78.0127 27.2117 76.8961 27.2939 75.614 27.6226C73.8769 28.0335 71.4782 28.4854 68.6658 29.1428C64.2405 29.8824 61.18 31.1972 59.3603 32.7997C57.4164 34.5254 56.093 36.6619 55.5553 39.2505C55.1417 42.0445 55.5553 44.5097 57.2924 46.482C59.1535 48.4131 61.9658 49.2759 66.0603 49.2759C70.1547 49.2759 72.0158 48.8651 74.4973 47.8789C74.8282 47.7557 75.2417 47.5502 75.5726 47.3448C77.1856 46.6874 78.7158 45.4958 80.3288 44.2221C80.3288 45.2904 80.2047 46.0711 80.3288 46.482C80.3288 46.8928 80.6596 47.5502 80.8664 48.5364H93.3152C92.8603 47.1394 92.6535 45.9478 92.6535 44.8795H92.7362ZM81.9004 34.1145C81.4868 35.8402 80.9078 37.1139 80.1633 38.1C79.4189 39.1683 78.3022 40.0311 76.8961 40.8118C76.5652 41.0173 76.0275 41.2227 75.614 41.346C74.6214 41.6747 73.5461 41.8801 72.5948 41.8801C71.6436 41.8801 70.1961 41.5514 69.5757 40.894C69.038 40.1544 68.914 39.3737 69.038 38.3054C69.3689 37.3193 69.9066 36.5798 70.7751 35.8402C71.5195 35.1828 73.2566 34.5664 75.6553 33.909C75.8621 33.909 76.0689 33.7036 76.3171 33.7036C78.385 33.2927 80.3288 32.7175 82.2726 32.1012L81.9417 34.1556L81.9004 34.1145Z" fill="white"/>
<path fill-rule="evenodd" clip-rule="evenodd" d="M161.142 16.3645C159.86 14.9675 157.999 14.1046 155.725 13.5705C153.326 13.2418 150.307 12.9131 146.419 12.9131C142.531 12.9131 143.483 13.0363 141.994 13.2418C141.125 13.2418 140.257 13.3651 139.512 13.4472C137.237 13.8581 135.5 14.3101 133.97 15.0497C132.233 16.0358 130.62 17.1862 129.628 18.3778C128.428 19.6515 127.477 21.3772 126.36 23.637L138.602 24.9108C139.595 23.5138 140.339 22.5277 141.332 21.9114C141.539 21.7059 141.746 21.7059 141.994 21.5826C143.193 21.1718 144.599 20.8431 146.419 20.8431C148.239 20.8431 149.231 21.2539 149.769 21.9114C150.307 22.5688 150.431 23.637 149.976 25.3627C148.239 26.0201 146.626 26.5543 145.096 26.883C144.351 27.2117 143.234 27.2939 141.952 27.6226C140.215 28.0335 137.817 28.4854 135.004 29.1428C130.579 29.8824 127.642 31.1972 125.699 32.7997C123.837 34.5254 122.555 36.6619 122.142 39.2505C121.604 42.0445 122.142 44.5097 123.755 46.482C125.616 48.4131 128.428 49.2759 132.44 49.2759C136.452 49.2759 138.396 48.8651 140.877 47.8789C141.208 47.7557 141.621 47.5502 141.952 47.3448C143.565 46.6874 145.096 45.4958 146.833 44.2221C146.626 45.2904 146.626 46.0711 146.833 46.482C146.833 46.8928 147.039 47.5502 147.246 48.5364H159.695C159.281 47.1394 159.033 45.9478 159.033 44.8795C159.033 43.8112 159.157 42.7429 159.571 41.0173L162.838 25.7325C163.169 24.1301 163.169 22.4044 162.962 20.6787C162.631 18.8298 161.97 17.4328 161.101 16.3645H161.142ZM148.239 34.1145C147.825 35.8402 147.246 37.1139 146.502 38.1C145.757 39.1683 144.765 40.0311 143.234 40.8118C142.904 41.0173 142.366 41.2227 141.952 41.346C140.96 41.6747 139.884 41.8801 138.933 41.8801C137.982 41.8801 136.534 41.5514 135.914 40.894C135.5 40.1544 135.17 39.3737 135.5 38.3054C135.707 37.3193 136.245 36.5798 137.113 35.8402C137.858 35.1828 139.595 34.5664 141.994 33.909C142.2 33.909 142.407 33.7036 142.655 33.7036C144.806 33.2927 146.667 32.7175 148.611 32.1012L148.28 34.1556L148.239 34.1145Z" fill="white"/>
<path fill-rule="evenodd" clip-rule="evenodd" d="M194.312 12.9131C192.45 12.9131 190.755 13.4472 189.307 14.3101C187.901 15.2962 186.288 17.0219 184.551 19.4872L185.75 13.6527H173.384L166.023 48.5364H179.34L181.821 36.7852C183.021 31.4027 184.427 27.5404 186.247 25.486C187.446 24.089 188.976 23.3494 190.672 23.3494C192.368 23.3494 192.74 23.6781 194.229 24.3355L200.309 14.762C198.241 13.5705 196.09 12.9131 194.229 12.9131H194.312Z" fill="white"/>
<path fill-rule="evenodd" clip-rule="evenodd" d="M206.016 0.422363L204.072 9.58498H217.39L219.251 0.422363H206.016Z" fill="white"/>
<path fill-rule="evenodd" clip-rule="evenodd" d="M195.925 48.5776H209.159L216.521 13.6528H203.204L195.925 48.5776Z" fill="white"/>
<path fill-rule="evenodd" clip-rule="evenodd" d="M258.789 25.7325C259.12 24.1301 259.12 22.4044 258.913 20.6787C258.706 18.8298 258.044 17.4328 257.052 16.3645C255.77 14.9675 254.033 14.1046 251.634 13.5705C249.483 13.2418 246.216 12.9131 242.328 12.9131C238.441 12.9131 239.392 13.0363 237.986 13.2418C236.993 13.2418 236.125 13.3651 235.38 13.4472C233.229 13.8581 231.368 14.3101 229.962 15.0497C228.101 16.0358 226.612 17.1862 225.413 18.3778C224.213 19.6515 223.262 21.3772 222.27 23.637L234.636 24.9108C235.504 23.5138 236.373 22.5277 237.365 21.9114C237.489 21.7059 237.696 21.7059 238.027 21.5826C239.226 21.1718 240.633 20.8431 242.37 20.8431C244.107 20.8431 245.306 21.2539 245.72 21.9114C246.257 22.5688 246.381 23.637 246.05 25.3627C244.189 26.0201 242.7 26.5543 241.046 26.883C240.302 27.2117 239.309 27.2939 238.027 27.6226C236.166 28.0335 233.891 28.4854 230.996 29.1428C226.654 29.8824 223.51 31.1972 221.691 32.7997C219.829 34.5254 218.671 36.6619 218.01 39.2505C217.472 42.0445 218.01 44.5097 219.623 46.482C221.484 48.4131 224.296 49.2759 228.391 49.2759C232.485 49.2759 234.346 48.8651 236.828 47.8789C237.241 47.7557 237.572 47.5502 238.027 47.3448C239.557 46.6874 241.046 45.4958 242.783 44.2221V46.482C242.783 46.8928 242.99 47.5502 243.321 48.5364H255.687C255.356 47.1394 255.025 45.9478 255.025 44.8795C255.025 43.8112 255.232 42.7429 255.563 41.0173L258.83 25.7325H258.789ZM244.148 34.1145C243.734 35.8402 243.279 37.1139 242.535 38.1C241.667 39.1683 240.674 40.0311 239.268 40.8118C238.854 41.0173 238.275 41.2227 237.986 41.346C236.91 41.6747 235.918 41.8801 234.967 41.8801C233.56 41.8801 232.568 41.5514 232.03 40.894C231.368 40.1544 231.286 39.3737 231.368 38.3054C231.575 37.3193 232.113 36.5798 232.981 35.8402C233.85 35.1828 235.463 34.5664 237.986 33.909C238.11 33.909 238.317 33.7036 238.647 33.7036C240.715 33.2927 242.659 32.7175 244.603 32.1012L244.189 34.1556L244.148 34.1145Z" fill="white"/>
</svg>
