<?xml version="1.0" encoding="UTF-8"?>
<svg id="Layer_1" data-name="Layer 1" xmlns="http://www.w3.org/2000/svg" viewBox="0 0 93.43 23.5">
  <defs>
    <style>
      .cls-1 {
        fill: #004b87;
      }

      .cls-2 {
        fill: #f89c27;
      }
    </style>
  </defs>
  <rect class="cls-2" x="24.87" y="7.15" width="9.76" height="9.76" transform="translate(-2.13 8.33) rotate(-15.4)"/>
  <path class="cls-1" d="M1.47,7.15h7.26l.14,2.77h-.26c-.38-.96-.79-1.6-1.22-1.95-.43-.35-1.06-.52-1.89-.52h-.49v4.32h.47c.44,0,.8-.17,1.1-.5.31-.33.51-.77.63-1.34h.21v4.13h-.23c-.17-.69-.39-1.2-.68-1.49-.28-.3-.67-.46-1.16-.46h-.34v4.49h.53c.86,0,1.59-.26,2.19-.77.6-.51,1.01-1.17,1.24-1.97h.28l-.12,3.04H1.47v-.3h.82V7.45h-.82"/>
  <path class="cls-1" d="M21.12,7.15l.14,3.5h-.27c-.41-1.24-.77-2.08-1.09-2.52-.32-.47-.77-.68-1.37-.68h-.16v9.18h1.18v.29h-5.09v-.29h1.18V7.44h-.18c-.59,0-1.05.24-1.38.71-.33.46-.69,1.3-1.08,2.5h-.26l.14-3.5"/>
  <path class="cls-1" d="M42.65,11.97h-.74v4.67h.9v.26h-4.54v-.26h.92V7.41h-.92v-.26h4.22c1.2,0,2.07.06,2.57.18.51.13.87.28,1.07.45.45.37.67.95.67,1.73s-.2,1.37-.59,1.71c-.4.34-.98.54-1.78.61v.04c.75.1,1.28.32,1.57.67.3.34.45.92.45,1.73v.74c0,.48.03.81.08.98.05.17.16.25.33.25s.3-.07.4-.24c.09-.15.18-.47.27-.97l.23.03c-.1.79-.28,1.32-.53,1.59-.26.26-.76.4-1.53.4s-1.3-.17-1.62-.54c-.33-.35-.48-1.02-.48-2.01v-1.01c0-.53-.07-.91-.2-1.15-.14-.24-.39-.36-.75-.36M41.91,7.41v4.31h.45c.53,0,.92-.17,1.18-.5.25-.32.38-.86.38-1.59v-.4c0-.75-.12-1.22-.37-1.46-.24-.24-.64-.36-1.18-.36h-.46Z"/>
  <polyline class="cls-1" points="59.08 7.41 59.08 16.91 57.13 16.91 52.35 7.88 52.35 16.64 53.11 16.64 53.11 16.91 51.2 16.91 51.2 16.64 51.97 16.64 51.97 7.41 51.2 7.41 51.2 7.15 55.05 7.15 58.71 14.15 58.71 7.41 57.93 7.41 57.93 7.15 59.85 7.15 59.85 7.41"/>
  <polyline class="cls-1" points="63.33 7.15 67.59 7.15 67.59 7.41 66.82 7.41 66.82 16.64 67.59 16.64 67.59 16.91 63.33 16.91 63.33 16.64 64.11 16.64 64.11 7.41 63.33 7.41"/>
  <path class="cls-1" d="M79.61,7.15l.14,3.5h-.27c-.41-1.24-.77-2.08-1.09-2.52-.31-.47-.77-.68-1.37-.68h-.16v9.18h1.18v.29h-5.09v-.29h1.18V7.44h-.19c-.6,0-1.05.24-1.38.71-.33.46-.69,1.3-1.07,2.5h-.27l.14-3.5"/>
  <polyline class="cls-1" points="88.64 11.74 90.62 7.36 89.21 7.36 89.21 7.15 91.96 7.15 91.96 7.36 91.04 7.36 88.93 12.02 88.93 16.64 89.79 16.64 89.79 16.91 85.36 16.91 85.36 16.64 86.21 16.64 86.21 12.29 83.84 7.36 83.19 7.36 83.19 7.15 87.65 7.15 87.65 7.36 86.75 7.36"/>
  <path class="cls-1" d="M26.93,9.24c.27-.27.58-.49.9-.67.33-.19.69-.34,1.08-.42.38-.1.78-.13,1.18-.1.41.03.79.11,1.13.2.34.1.65.18.97.23.31.07.61.1.94.1.32.01.66-.02,1.01-.05.35-.04.7-.09,1.08-.12,0,0,.01,0,.01.01h-.01c-.27.27-.57.49-.9.68-.33.18-.69.32-1.08.42-.38.1-.79.12-1.19.1-.4-.02-.78-.11-1.13-.2-.34-.09-.65-.17-.97-.23-.3-.06-.62-.09-.95-.09-.32-.01-.66.01-1,.05-.35.03-.71.09-1.08.11,0,0,0,0,0,0"/>
  <path class="cls-1" d="M24.26,15.61c.28-.25.59-.47.91-.65.32-.18.68-.33,1.07-.43.39-.1.81-.12,1.19-.1.4.03.79.11,1.13.2.34.09.66.17.97.23.31.07.62.09.95.09.32,0,.65-.02,1.01-.05.35-.03.7-.08,1.08-.11,0,0,0,0,.02.01h-.02c-.27.27-.57.48-.9.67-.33.19-.69.33-1.08.42-.38.08-.8.12-1.19.09-.41-.03-.79-.12-1.13-.2-.34-.1-.67-.18-.97-.24-.3-.06-.62-.08-.94-.1-.32,0-.66.02-1.01.06-.34.03-.7.08-1.08.11,0,0,0,0,0-.01"/>
  <path class="cls-1" d="M25.59,12.43c.27-.26.59-.48.92-.66.33-.18.68-.33,1.08-.42.37-.09.78-.13,1.19-.09.41.02.78.11,1.13.19.35.1.67.18.97.24.3.05.62.09.93.09s.66-.03,1-.05c.36-.03.72-.08,1.09-.11,0,0,0,0,0,0h0c-.27.27-.58.48-.91.68-.33.17-.69.32-1.07.42-.38.1-.8.13-1.18.1-.41-.03-.79-.11-1.14-.2-.35-.09-.65-.18-.97-.23-.3-.06-.62-.1-.94-.1s-.66.02-1.01.06c-.35.03-.7.08-1.08.11,0,0-.02,0-.02,0"/>
</svg>