<svg width="158" height="42" viewBox="0 0 158 42" fill="none" xmlns="http://www.w3.org/2000/svg">
<path fill-rule="evenodd" clip-rule="evenodd" d="M61.5173 29.7652C61.2013 31.1749 60.8124 32.0499 60.4236 32.5117C59.9861 33.0221 59.4027 33.2166 58.7708 33.2166C58.1388 33.2166 58.0173 33.1436 57.3611 33.095L55.0034 38.7582C57.1666 39.1957 58.9409 39.4631 60.4722 39.4631C62.0034 39.4631 63.7291 39.1471 64.8715 38.4422C65.9652 37.8589 66.8402 36.9839 67.4236 35.8902C68.0069 34.7964 68.5659 33.095 69.0763 30.47L73.2812 10.4666H65.5034L61.493 29.7652H61.5173Z" fill="white"/>
<path fill-rule="evenodd" clip-rule="evenodd" d="M67.1075 2.61597L66.0381 8.03611H73.7916L74.9582 2.61597H67.1075Z" fill="white"/>
<path fill-rule="evenodd" clip-rule="evenodd" d="M38.0137 2.61597H26.4686L15.1908 13.4562L17.4269 2.61597H8.82275L2.9165 31.1021H11.4964L12.9061 24.1507L18.3748 19.4354L21.8262 31.1021H32.5207L25.5207 13.3833L38.0137 2.61597Z" fill="white"/>
<path fill-rule="evenodd" clip-rule="evenodd" d="M56.8503 28.9146C56.8503 28.4042 56.9232 27.6507 57.1663 26.6299L59.0135 17.5882C59.2566 16.6403 59.2566 15.6195 59.135 14.5986C58.9406 13.5049 58.5517 12.6785 58.0413 12.0465C57.2878 11.2202 56.1941 10.7097 54.8573 10.3938C53.4475 10.1993 51.6732 10.0049 49.3885 10.0049C47.1038 10.0049 47.6142 10.0778 46.7878 10.1993C46.2774 10.1993 45.767 10.2722 45.2566 10.3209C43.9927 10.5639 42.8989 10.8313 42.0726 11.2688C41.0517 11.8521 40.1038 12.5327 39.4719 13.2375C38.767 13.991 38.1351 15.0118 37.6246 16.3486L44.8191 17.1021C45.4024 16.2757 45.8399 15.6924 46.4232 15.3278C46.5448 15.2063 46.6663 15.2063 46.8121 15.1334C47.517 14.8903 48.3434 14.6959 49.4128 14.6959C50.4823 14.6959 51.0656 14.9389 51.3816 15.3278C51.6975 15.7167 51.7705 16.3486 51.5031 17.3695C50.4823 17.7584 49.5344 18.0743 48.6351 18.2688C48.1976 18.4632 47.5413 18.5118 46.7878 18.7063C45.767 18.9493 44.3573 19.2167 42.7045 19.6056C40.1038 20.0431 38.3052 20.8209 37.2357 21.7688C36.0934 22.7896 35.3156 24.0535 34.9996 25.5847C34.7566 27.2375 34.9996 28.6959 36.0205 29.8625C37.1142 31.0049 38.767 31.5153 41.1732 31.5153C43.5795 31.5153 44.6732 31.2722 46.1316 30.6889C46.326 30.616 46.5691 30.4945 46.7635 30.3729C47.7114 29.984 48.6107 29.2792 49.5587 28.5257C49.5587 29.1577 49.4857 29.6195 49.5587 29.8625C49.5587 30.1056 49.7531 30.4945 49.8746 31.0778H57.1906C56.9232 30.2514 56.8017 29.5465 56.8017 28.9146H56.8503ZM50.4823 22.5465C50.2392 23.5674 49.8989 24.3209 49.4614 24.9042C49.0239 25.5361 48.3677 26.0465 47.5413 26.5084C47.3469 26.6299 47.0309 26.7514 46.7878 26.8243C46.2045 27.0188 45.5725 27.1403 45.0135 27.1403C44.4545 27.1403 43.6038 26.9459 43.2392 26.557C42.9232 26.1195 42.8503 25.6577 42.9232 25.0257C43.1177 24.4424 43.4337 24.0049 43.9441 23.5674C44.3816 23.1785 45.4024 22.8139 46.8121 22.425C46.9337 22.425 47.0552 22.3035 47.201 22.3035C48.4163 22.0604 49.5587 21.7202 50.701 21.3556L50.5066 22.5709L50.4823 22.5465Z" fill="white"/>
<path fill-rule="evenodd" clip-rule="evenodd" d="M97.0518 12.0465C96.2983 11.2202 95.2046 10.7097 93.8678 10.3938C92.4581 10.1993 90.6838 10.0049 88.399 10.0049C86.1143 10.0049 86.6733 10.0778 85.7983 10.1993C85.2879 10.1993 84.7775 10.2722 84.34 10.3209C83.0032 10.5639 81.9824 10.8313 81.0831 11.2688C80.0622 11.8521 79.1143 12.5327 78.531 13.2375C77.8261 13.991 77.2671 15.0118 76.6108 16.3486L83.8053 17.1021C84.3886 16.2757 84.8261 15.6924 85.4095 15.3278C85.531 15.2063 85.6525 15.2063 85.7983 15.1334C86.5032 14.8903 87.3296 14.6959 88.399 14.6959C89.4685 14.6959 90.0518 14.9389 90.3678 15.3278C90.6838 15.7167 90.7567 16.3486 90.4893 17.3695C89.4685 17.7584 88.5206 18.0743 87.6213 18.2688C87.1838 18.4632 86.5275 18.5118 85.774 18.7063C84.7532 18.9493 83.3435 19.2167 81.6907 19.6056C79.09 20.0431 77.3643 20.8209 76.222 21.7688C75.1282 22.7896 74.3747 24.0535 74.1317 25.5847C73.8157 27.2375 74.1317 28.6959 75.0796 29.8625C76.1733 31.0049 77.8261 31.5153 80.1838 31.5153C82.5414 31.5153 83.6838 31.2722 85.1421 30.6889C85.3365 30.616 85.5796 30.4945 85.774 30.3729C86.722 29.984 87.6213 29.2792 88.6421 28.5257C88.5206 29.1577 88.5206 29.6195 88.6421 29.8625C88.6421 30.1056 88.7636 30.4945 88.8852 31.0778H96.2011C95.9581 30.2514 95.8122 29.5465 95.8122 28.9146C95.8122 28.2827 95.8852 27.6507 96.1282 26.6299L98.0483 17.5882C98.2428 16.6403 98.2428 15.6195 98.1213 14.5986C97.9268 13.5049 97.5379 12.6785 97.0275 12.0465H97.0518ZM89.4685 22.5465C89.2254 23.5674 88.8851 24.3209 88.4476 24.9042C88.0101 25.5361 87.4268 26.0465 86.5275 26.5084C86.3331 26.6299 86.0171 26.7514 85.774 26.8243C85.1907 27.0188 84.5588 27.1403 83.9997 27.1403C83.4407 27.1403 82.59 26.9459 82.2254 26.557C81.9824 26.1195 81.7879 25.6577 81.9824 25.0257C82.1039 24.4424 82.4199 24.0049 82.9303 23.5674C83.3678 23.1785 84.3886 22.8139 85.7983 22.425C85.9199 22.425 86.0414 22.3035 86.1872 22.3035C87.4511 22.0604 88.5449 21.7202 89.6872 21.3556L89.4928 22.5709L89.4685 22.5465Z" fill="white"/>
<path fill-rule="evenodd" clip-rule="evenodd" d="M116.545 10.0049C115.451 10.0049 114.455 10.3209 113.604 10.8313C112.778 11.4146 111.83 12.4354 110.809 13.8938L111.514 10.4424H104.246L99.9199 31.0778H107.746L109.205 24.1264C109.909 20.9424 110.736 18.6577 111.805 17.4424C112.51 16.616 113.41 16.1785 114.406 16.1785C115.403 16.1785 115.621 16.3729 116.496 16.7618L120.069 11.0986C118.854 10.3938 117.59 10.0049 116.496 10.0049H116.545Z" fill="white"/>
<path fill-rule="evenodd" clip-rule="evenodd" d="M123.423 2.61597L122.281 8.03611H130.107L131.201 2.61597H123.423Z" fill="white"/>
<path fill-rule="evenodd" clip-rule="evenodd" d="M117.493 31.1021H125.271L129.597 10.4424H121.771L117.493 31.1021Z" fill="white"/>
<path fill-rule="evenodd" clip-rule="evenodd" d="M154.437 17.5882C154.632 16.6403 154.632 15.6195 154.51 14.5986C154.389 13.5049 154 12.6785 153.416 12.0465C152.663 11.2202 151.642 10.7097 150.232 10.3938C148.969 10.1993 147.048 10.0049 144.764 10.0049C142.479 10.0049 143.038 10.0778 142.212 10.1993C141.628 10.1993 141.118 10.2722 140.68 10.3209C139.416 10.5639 138.323 10.8313 137.496 11.2688C136.403 11.8521 135.528 12.5327 134.823 13.2375C134.118 13.991 133.559 15.0118 132.975 16.3486L140.243 17.1021C140.753 16.2757 141.264 15.6924 141.847 15.3278C141.92 15.2063 142.041 15.2063 142.236 15.1334C142.941 14.8903 143.767 14.6959 144.788 14.6959C145.809 14.6959 146.514 14.9389 146.757 15.3278C147.073 15.7167 147.146 16.3486 146.951 17.3695C145.857 17.7584 144.982 18.0743 144.01 18.2688C143.573 18.4632 142.989 18.5118 142.236 18.7063C141.142 18.9493 139.805 19.2167 138.104 19.6056C135.552 20.0431 133.705 20.8209 132.635 21.7688C131.541 22.7896 130.861 24.0535 130.472 25.5847C130.156 27.2375 130.472 28.6959 131.42 29.8625C132.514 31.0049 134.166 31.5153 136.573 31.5153C138.979 31.5153 140.073 31.2722 141.531 30.6889C141.774 30.616 141.969 30.4945 142.236 30.3729C143.135 29.984 144.01 29.2792 145.031 28.5257V29.8625C145.031 30.1056 145.153 30.4945 145.347 31.0778H152.614C152.42 30.2514 152.225 29.5465 152.225 28.9146C152.225 28.2827 152.347 27.6507 152.541 26.6299L154.462 17.5882H154.437ZM145.833 22.5465C145.59 23.5674 145.323 24.3209 144.885 24.9042C144.375 25.5361 143.791 26.0465 142.965 26.5084C142.722 26.6299 142.382 26.7514 142.212 26.8243C141.58 27.0188 140.996 27.1403 140.437 27.1403C139.611 27.1403 139.028 26.9459 138.712 26.557C138.323 26.1195 138.274 25.6577 138.323 25.0257C138.444 24.4424 138.76 24.0049 139.271 23.5674C139.781 23.1785 140.729 22.8139 142.212 22.425C142.285 22.425 142.406 22.3035 142.6 22.3035C143.816 22.0604 144.958 21.7202 146.1 21.3556L145.857 22.5709L145.833 22.5465Z" fill="white"/>
</svg>
