<?xml version="1.0" encoding="UTF-8"?>
<svg id="Layer_1" data-name="Layer 1" xmlns="http://www.w3.org/2000/svg" viewBox="0 0 98.76 23.5">
  <defs>
    <style>
      .cls-1 {
        fill: #255487;
        fill-rule: evenodd;
      }
    </style>
  </defs>
  <path class="cls-1" d="M55.7,16.09h5.8c.85,0,1.9-.2,2.53-.72.2-.16.38-.37.5-.61.42-.84.39-2.21-.37-2.8-.49-.38-1.11-.5-1.77-.5v-.05c.45,0,1.04-.17,1.37-.48.03-.02.03-.04.06-.06.04-.03.04-.03.08-.07.05-.05.08-.09.12-.14.52-.7.56-1.88.18-2.65-.3-.6-.96-.92-1.62-1.05-.37-.07-.79-.12-1.23-.12h-5.66v9.24ZM60.76,10.51h-2.71v-1.74h2.83c.29,0,.56.05.76.15.48.24.42.9.24,1.17-.08.12-.14.17-.26.25-.2.12-.54.18-.86.18ZM60.88,14.16h-2.83v-1.76h2.93c.46,0,1,.07,1.23.44.2.31.18.98-.31,1.17-.28.11-.64.15-1.03.15Z"/>
  <path class="cls-1" d="M14.74,11.53c0,1.15.13,2.27.76,3.19.04.06.07.1.11.15.18.24.45.48.69.66.21.15.45.26.71.37.8.32,1.48.34,2.37.34s1.92-.27,2.61-.69c.37-.23.62-.44.9-.75.11-.12.25-.34.34-.48.09-.14.14-.27.2-.43l.05-.14s0,0,0-.01c0,.22.01.38.02.6l.03.59c.02.16.03.68.03.89,0,.13.02.18.02.3h2.09l-.02-5.08h-5.3v1.67h2.58c0,.57-.45,1.1-.91,1.37-.79.46-2.35.46-3.23.23-.41-.11-.67-.26-.95-.54-.15-.15-.21-.25-.31-.43-.04-.06-.08-.18-.11-.26-.12-.31-.23-.93-.22-1.27,0-.06,0-.13,0-.19,0-.07-.02-.09-.02-.18,0-.1.02-.13.02-.35,0-.12,0-.23.02-.35.05-.41.12-.81.31-1.16.11-.22.24-.36.42-.51.38-.34,1.02-.49,1.52-.54.12-.01.22-.02.35-.02.2,0,.37-.04.62,0,.09.01.18,0,.28,0,.72.06,1.48.22,1.89.85.15.23.23.5.3.8h2.76c-.08-.36-.1-.49-.22-.87-.27-.81-.69-1.42-1.43-1.86-1.06-.64-2.51-.75-4.04-.75-1.06,0-1.82.14-2.69.45-.28.1-.58.28-.83.44-.07.05-.12.08-.18.13-.51.38-.96,1.04-1.17,1.66-.24.73-.34,1.38-.34,2.18"/>
  <path class="cls-1" d="M88,16.09h5.55c.69,0,1.35-.13,1.87-.31.57-.2.91-.45,1.33-.86.22-.22.35-.46.49-.72.65-1.17.67-3.52.28-4.8-.15-.47-.44-1.06-.79-1.41-.05-.05-.08-.08-.13-.13-.11-.12-.33-.27-.47-.36-.22-.14-.48-.26-.75-.35-.5-.18-1.23-.29-1.9-.29h-5.48v9.24ZM93.04,14.28h-2.67v-5.62h2.63c.42,0,.78.08,1.1.19.33.11.55.3.74.54.42.51.55,1.27.55,2.14s-.17,1.54-.54,2c-.2.25-.4.42-.73.55-.29.11-.69.2-1.08.2Z"/>
  <path class="cls-1" d="M77.36,16.09h2.14v-6.01c.05.04.12.12.16.17l.47.57c.37.42.88,1.09,1.24,1.5l2.96,3.59c.05.06.13.18.18.18h2.3V6.85h-2.14v5.85s-.12-.14-.16-.18c-.05-.06-.1-.11-.16-.18-.05-.06-.1-.13-.15-.18-.04-.04-.05-.05-.08-.09l-2.25-2.65c-.05-.06-.1-.12-.15-.18l-1.99-2.35s0-.03-.05-.03h-2.32v9.24Z"/>
  <path class="cls-1" d="M26.91,16.09h2.35v-3.07h2.48c.88,0,1.2.29,1.42,1.04.1.34.24,1.11.33,1.51l.12.52h2.44l-.32-1.35c-.12-.46-.19-.9-.36-1.31l-.13-.27c-.17-.28-.29-.47-.61-.66-.41-.25-.95-.31-1.52-.31v-.07c.51,0,.78-.03,1.23-.18.13-.04.31-.12.42-.19l.26-.19c.51-.42.76-1.2.76-1.86,0-.76-.04-1.4-.56-1.99-.6-.68-1.84-.86-2.73-.86h-5.59v9.24ZM32.01,11.23h-2.74v-2.28h2.48c.41,0,.89.02,1.17.15.24.12.39.3.45.55.05.19.05.4.01.6-.13.73-.62.98-1.36.98Z"/>
  <path class="cls-1" d="M70.83,16.27c1.48,0,3.03-.18,4.12-1.11l.16-.14c.05-.05.11-.1.15-.16l.27-.34c.17-.22.33-.55.43-.81.49-1.29.48-3.39-.09-4.65-.09-.21-.21-.41-.34-.59-.13-.19-.4-.51-.58-.65-.12-.1-.22-.18-.35-.26-.13-.09-.25-.15-.39-.22-.07-.04-.13-.07-.2-.1-1.53-.69-4.34-.7-5.88-.09-.08.03-.15.06-.22.09-.32.16-.7.35-.96.6l-.58.67c-.36.54-.57,1.19-.66,1.83-.01.08-.03.18-.03.26-.09,1.07-.06,2.02.29,3.05.1.28.26.6.42.83.12.18.27.35.42.51,1,1.01,2.66,1.29,4.02,1.29M71,14.42c-.72,0-1.72-.13-2.21-.62-.12-.12-.23-.23-.33-.38-.43-.7-.43-1.4-.43-2.22,0-.87.27-1.78.99-2.25l.24-.13c.15-.07.36-.15.54-.18.3-.06,1-.16,1.3-.11.1.01.36,0,.68.05.76.11,1.45.39,1.79,1.09.19.39.26.66.32,1.12l.04.68c0,.14-.02.21-.02.33,0,.65-.22,1.48-.66,1.92-.45.44-.92.57-1.54.65-.2.03-.48.04-.69.04Z"/>
  <path class="cls-1" d="M45.64,9.31c0,.51.01.99.26,1.42.19.33.33.47.62.7.49.4,1.12.62,1.87.77.38.07.72.14,1.12.2.39.06.77.1,1.16.16.48.08,1.71.25,1.71.92,0,.27-.03.43-.24.64-.12.12-.29.2-.47.27-.54.21-1.72.24-2.33.1-.52-.12-.92-.29-1.19-.76-.09-.15-.24-.51-.24-.74h-2.48c0,.41.25,1.11.44,1.49.06.11.11.19.18.29.1.15.31.4.45.51.54.42.91.63,1.64.78,1.21.25,2.73.25,3.96.05.47-.08,1.19-.3,1.6-.56.24-.16.26-.17.49-.39.35-.35.62-.97.62-1.56,0-.8-.04-1.23-.52-1.85-.05-.07-.1-.11-.16-.17l-.36-.29c-.6-.41-.87-.46-1.67-.65-.29-.07-.81-.15-1.12-.2-.54-.08-1.78-.22-2.24-.39-.27-.1-.68-.29-.68-.64,0-.2,0-.29.11-.47.16-.24.51-.35.79-.42.48-.11.7-.05.92-.08.06,0,.11-.02.2-.01.13.01.26,0,.41.02.55.05.91.12,1.27.37.06.05.15.13.2.2.05.08.12.17.15.26.06.16.17.48.18.65h2.39c0-.64-.34-1.62-.81-2.09-.15-.15-.21-.22-.39-.35-.47-.33-.93-.5-1.54-.64-1.33-.29-3.66-.24-4.88.36-.4.2-.72.43-.98.78-.22.3-.43.82-.43,1.33"/>
  <polygon class="cls-1" points="36.98 16.09 44.69 16.09 44.69 13.98 39.35 13.98 39.35 12.49 44.43 12.49 44.43 10.45 39.35 10.45 39.35 8.96 44.69 8.96 44.69 6.85 36.98 6.85 36.98 16.09"/>
  <path class="cls-1" d="M2.95,16.23c.25-.13,1.26-.82,1.55-1.01.07-.05.15-.12.24-.13.03.11.13.18.16.28-.06.04-1.59,1.08-1.67,1.11.02.09.13.14.19.2l.97.96c.39.39.28.4.63.34.09-.01.14-.03.22-.04.37-.06.99-.16,1.34-.24v-1.07h-.61c-.07,0-.17-.24-.2-.3-.18-.3-.33-.66-.52-.95h3c-.02.09-.51.97-.59,1.11-.12.2-.02.14-.72.14v1.07c.14.03.28.05.43.08.2.04,1.19.24,1.35.24.1,0,.7-.67.79-.74.11-.09.71-.73.79-.75v-.04c-.11-.03-1.48-.98-1.67-1.11.02-.09.13-.19.16-.28.11,0,1.57,1.02,1.79,1.14.17-.11.73-.6.96-.78.22-.17.42-.36.65-.53.11-.08.07-.05.08-.22l.23-4.48c0-.12.02-.17.02-.28,0-.37.05-.75.05-1.12l-.22.1s-.07.03-.11.05c-.2.09-1.35.65-1.48.68.02.1,0,.3-.03.43-.02.16-.03.3-.05.46l-.1.92c-.03.3-.07.62-.1.92-.04.32-.09.61-.09.93-.13.03-.58.22-.73.29-.07.03-.06.04-.1.11-.05.09-.11.18-.15.27-.19.36-.41.71-.6,1.07-.12-.03-.5-.26-.61-.32-.05-.03-.1-.05-.15-.08-.06-.03-.09-.05-.16-.09l-.31-.16c-.04.08-.19.28-.19.37.06.03.1.06.17.09.06.03.13.05.16.1h-.74v-1.18c0-.07.46-.2.54-.23l.57-.21c.09-.03.18.05.26.09l.53.25c.07.03.2.12.28.12.01-.05.06-.13.09-.19.03-.07.07-.12.1-.18-.18-.04-.35-.16-.52-.23-.1-.04-.17-.08-.25-.11-.13-.05-.1-.1-.15-.24l-.26-.88c-.04-.15-.04-.16-.04-.34l1.28-.63c0-.17.04-.29.04-.47l-1.32.65v-.21c.09-.05.19-.08.29-.13l1.73-.84c.09-.05.2-.11.3-.13,0-.08-.17-.31-.23-.35-.09.02-1.13.53-1.26.6-.21.1-.41.2-.63.3-.11.06-.19.1-.31.15-.06.02-.1.05-.15.08-.05.02-.14.05-.14.11v1.12c0,.15.15.56.2.73.02.08.06.18.06.25h-2.44c.06-.12.28-.9.28-.97v-1.14c0-.07-.22-.14-.29-.17l-1.84-.9c-.06-.03-.1-.05-.15-.07-.06-.03-.11-.06-.17-.07-.05.1-.18.27-.19.37.07.02.21.09.28.12l1.68.81c.1.05.2.09.29.13v.21l-.98-.49c-.08-.04-.27-.15-.35-.16.02.04.03.21.03.26,0,.05,0,.1.01.13.01.09-.01.06.05.11.05.03.15.07.2.1.07.04.14.07.21.11.17.08.68.37.83.4,0,.24-.05.38-.12.6l-.21.7c-.05.15-.07.15-.32.25-.17.07-.33.18-.51.23.01.14.15.24.18.37.1,0,.65-.28.78-.35.25-.12.18-.1.54.03.09.03.19.07.28.1.08.03.18.07.27.1.06.02.26.05.26.13v1.18h-.76l.35-.19c0-.11-.14-.27-.19-.37-.17.05-.99.57-1.18.61-.05-.09-.09-.18-.14-.26l-.44-.79c-.05-.1-.1-.16-.15-.26-.06-.12-.13-.12-.25-.17-.18-.07-.42-.14-.58-.25,0-.25-.06-.65-.1-.91-.04-.31-.06-.59-.1-.9-.03-.21-.21-1.61-.21-1.81-.11-.03-.97-.44-1.15-.52l-.7-.32.14,2.78c.01.2,0,.38.02.58,0,.09.02.15.02.26l.11,1.97c0,.09,0,.18,0,.27.02.13-.02.16.07.23l1.46,1.19c.06.05.1.09.17.13"/>
  <path class="cls-1" d="M1.02,6.26c.01.05.06.1.1.15.04.06.07.1.11.15l.65.89c-.02.09-.04.08-.09.14-.04.05-.07.08-.11.12l-.42.5c-.08.1-.19.18-.2.26.06.01.08.03.12.05.04.02.08.03.12.05l1.7.77s.05-.07.09-.11c.03-.04.06-.08.09-.12.06-.08.12-.15.18-.24l1.1-1.42c.3,0,2.15.23,2.28.23.06,0,.21-.02.27-.03.32-.03,1.84-.2,2.02-.2.01.05.13.19.17.23l1.19,1.52s.07.08.08.13c.1,0,.17-.06.25-.1l1.72-.78c-.02-.08-.03-.07-.08-.13l-.63-.74c-.14-.18-.15-.05.11-.43l.65-.91-.68-.39c-.12-.07-.23-.12-.35-.2-.12-.08-.19-.02-.44.01-.15.02-.31.05-.47.08-.13.02-.15.09-.28.26-.04.06-.43.57-.48.6-.1-.03-.18-.17-.28-.19.02-.08.16-.23.21-.3.06-.07.19-.22.21-.3H3.59c0,.08,0,.03.04.08.02.02.04.04.06.07.04.05.07.1.12.15.05.06.2.23.21.3-.05.01-.09.06-.14.09-.05.03-.09.09-.15.1-.05-.03-.53-.65-.59-.74-.06-.07-.05-.11-.15-.13l-.7-.11c-.12-.02-.13-.04-.22.02-.26.16-.82.45-1.04.59"/>
  <path class="cls-1" d="M41.79,6.15c-.1-.18-.2-.35-.3-.53l-.91-1.58h-2.28c.09.14.09.1.15.18l.57.66s.04.06.08.1c.04.04.04.04.08.09.03.04.05.05.08.09.19.23.58.65.74.85.14.18.13.14.39.14.47,0,.94,0,1.41,0"/>
  <path class="cls-1" d="M7.75,14.04c.14.03.57.28.74.37.08.04.17.08.25.12.04-.08.18-.3.19-.37-.08-.04-.16-.08-.25-.12-.17-.09-.65-.36-.76-.37-.03.06-.06.12-.09.18-.05.1-.08.11-.09.19"/>
  <path class="cls-1" d="M4.66,14.13c.02.08.15.28.19.37.08-.02.36-.18.47-.23.08-.04.16-.08.23-.12.08-.04.15-.08.23-.12l-.18-.35c-.14.01-.83.43-.95.46"/>
  <path class="cls-1" d="M55.7,16.09h5.8c.85,0,1.9-.2,2.53-.72.2-.16.38-.37.5-.61.42-.84.39-2.21-.37-2.8-.49-.38-1.11-.5-1.77-.5v-.05c.45,0,1.04-.17,1.37-.48.03-.02.03-.04.06-.06.04-.03.04-.03.08-.07.05-.05.08-.09.12-.14.52-.7.56-1.88.18-2.65-.3-.6-.96-.92-1.62-1.05-.37-.07-.79-.12-1.23-.12h-5.66v9.24ZM60.76,10.51h-2.71v-1.74h2.83c.29,0,.56.05.76.15.48.24.42.9.24,1.17-.08.12-.14.17-.26.25-.2.12-.54.18-.86.18ZM60.88,14.16h-2.83v-1.76h2.93c.46,0,1,.07,1.23.44.2.31.18.98-.31,1.17-.28.11-.64.15-1.03.15Z"/>
  <path class="cls-1" d="M14.74,11.53c0,1.15.13,2.27.76,3.19.04.06.07.1.11.15.18.24.45.48.69.66.21.15.45.26.71.37.8.32,1.48.34,2.37.34s1.92-.27,2.61-.69c.37-.23.62-.44.9-.75.11-.12.25-.34.34-.48.09-.14.14-.27.2-.43l.05-.14s0,0,0-.01c0,.22.01.38.02.6l.03.59c.02.16.03.68.03.89,0,.13.02.18.02.3h2.09l-.02-5.08h-5.3v1.67h2.58c0,.57-.45,1.1-.91,1.37-.79.46-2.35.46-3.23.23-.41-.11-.67-.26-.95-.54-.15-.15-.21-.25-.31-.43-.04-.06-.08-.18-.11-.26-.12-.31-.23-.93-.22-1.27,0-.06,0-.13,0-.19,0-.07-.02-.09-.02-.18,0-.1.02-.13.02-.35,0-.12,0-.23.02-.35.05-.41.12-.81.31-1.16.11-.22.24-.36.42-.51.38-.34,1.02-.49,1.52-.54.12-.01.22-.02.35-.02.2,0,.37-.04.62,0,.09.01.18,0,.28,0,.72.06,1.48.22,1.89.85.15.23.23.5.3.8h2.76c-.08-.36-.1-.49-.22-.87-.27-.81-.69-1.42-1.43-1.86-1.06-.64-2.51-.75-4.04-.75-1.06,0-1.82.14-2.69.45-.28.1-.58.28-.83.44-.07.05-.12.08-.18.13-.51.38-.96,1.04-1.17,1.66-.24.73-.34,1.38-.34,2.18"/>
  <path class="cls-1" d="M88,16.09h5.55c.69,0,1.35-.13,1.87-.31.57-.2.91-.45,1.33-.86.22-.22.35-.46.49-.72.65-1.17.67-3.52.28-4.8-.15-.47-.44-1.06-.79-1.41-.05-.05-.08-.08-.13-.13-.11-.12-.33-.27-.47-.36-.22-.14-.48-.26-.75-.35-.5-.18-1.23-.29-1.9-.29h-5.48v9.24ZM93.04,14.28h-2.67v-5.62h2.63c.42,0,.78.08,1.1.19.33.11.55.3.74.54.42.51.55,1.27.55,2.14s-.17,1.54-.54,2c-.2.25-.4.42-.73.55-.29.11-.69.2-1.08.2Z"/>
  <path class="cls-1" d="M77.36,16.09h2.14v-6.01c.05.04.12.12.16.17l.47.57c.37.42.88,1.09,1.24,1.5l2.96,3.59c.05.06.13.18.18.18h2.3V6.85h-2.14v5.85s-.12-.14-.16-.18c-.05-.06-.1-.11-.16-.18-.05-.06-.1-.13-.15-.18-.04-.04-.05-.05-.08-.09l-2.25-2.65c-.05-.06-.1-.12-.15-.18l-1.99-2.35s0-.03-.05-.03h-2.32v9.24Z"/>
  <path class="cls-1" d="M26.91,16.09h2.35v-3.07h2.48c.88,0,1.2.29,1.42,1.04.1.34.24,1.11.33,1.51l.12.52h2.44l-.32-1.35c-.12-.46-.19-.9-.36-1.31l-.13-.27c-.17-.28-.29-.47-.61-.66-.41-.25-.95-.31-1.52-.31v-.07c.51,0,.78-.03,1.23-.18.13-.04.31-.12.42-.19l.26-.19c.51-.42.76-1.2.76-1.86,0-.76-.04-1.4-.56-1.99-.6-.68-1.84-.86-2.73-.86h-5.59v9.24ZM32.01,11.23h-2.74v-2.28h2.48c.41,0,.89.02,1.17.15.24.12.39.3.45.55.05.19.05.4.01.6-.13.73-.62.98-1.36.98Z"/>
  <path class="cls-1" d="M70.83,16.27c1.48,0,3.03-.18,4.12-1.11l.16-.14c.05-.05.11-.1.15-.16l.27-.34c.17-.22.33-.55.43-.81.49-1.29.48-3.39-.09-4.65-.09-.21-.21-.41-.34-.59-.13-.19-.4-.51-.58-.65-.12-.1-.22-.18-.35-.26-.13-.09-.25-.15-.39-.22-.07-.04-.13-.07-.2-.1-1.53-.69-4.34-.7-5.88-.09-.08.03-.15.06-.22.09-.32.16-.7.35-.96.6l-.58.67c-.36.54-.57,1.19-.66,1.83-.01.08-.03.18-.03.26-.09,1.07-.06,2.02.29,3.05.1.28.26.6.42.83.12.18.27.35.42.51,1,1.01,2.66,1.29,4.02,1.29M71,14.42c-.72,0-1.72-.13-2.21-.62-.12-.12-.23-.23-.33-.38-.43-.7-.43-1.4-.43-2.22,0-.87.27-1.78.99-2.25l.24-.13c.15-.07.36-.15.54-.18.3-.06,1-.16,1.3-.11.1.01.36,0,.68.05.76.11,1.45.39,1.79,1.09.19.39.26.66.32,1.12l.04.68c0,.14-.02.21-.02.33,0,.65-.22,1.48-.66,1.92-.45.44-.92.57-1.54.65-.2.03-.48.04-.69.04Z"/>
  <path class="cls-1" d="M45.64,9.31c0,.51.01.99.26,1.42.19.33.33.47.62.7.49.4,1.12.62,1.87.77.38.07.72.14,1.12.2.39.06.77.1,1.16.16.48.08,1.71.25,1.71.92,0,.27-.03.43-.24.64-.12.12-.29.2-.47.27-.54.21-1.72.24-2.33.1-.52-.12-.92-.29-1.19-.76-.09-.15-.24-.51-.24-.74h-2.48c0,.41.25,1.11.44,1.49.06.11.11.19.18.29.1.15.31.4.45.51.54.42.91.63,1.64.78,1.21.25,2.73.25,3.96.05.47-.08,1.19-.3,1.6-.56.24-.16.26-.17.49-.39.35-.35.62-.97.62-1.56,0-.8-.04-1.23-.52-1.85-.05-.07-.1-.11-.16-.17l-.36-.29c-.6-.41-.87-.46-1.67-.65-.29-.07-.81-.15-1.12-.2-.54-.08-1.78-.22-2.24-.39-.27-.1-.68-.29-.68-.64,0-.2,0-.29.11-.47.16-.24.51-.35.79-.42.48-.11.7-.05.92-.08.06,0,.11-.02.2-.01.13.01.26,0,.41.02.55.05.91.12,1.27.37.06.05.15.13.2.2.05.08.12.17.15.26.06.16.17.48.18.65h2.39c0-.64-.34-1.62-.81-2.09-.15-.15-.21-.22-.39-.35-.47-.33-.93-.5-1.54-.64-1.33-.29-3.66-.24-4.88.36-.4.2-.72.43-.98.78-.22.3-.43.82-.43,1.33"/>
  <polygon class="cls-1" points="36.98 16.09 44.69 16.09 44.69 13.98 39.35 13.98 39.35 12.49 44.43 12.49 44.43 10.45 39.35 10.45 39.35 8.96 44.69 8.96 44.69 6.85 36.98 6.85 36.98 16.09"/>
  <path class="cls-1" d="M2.95,16.23c.25-.13,1.26-.82,1.55-1.01.07-.05.15-.12.24-.13.03.11.13.18.16.28-.06.04-1.59,1.08-1.67,1.11.02.09.13.14.19.2l.97.96c.39.39.28.4.63.34.09-.01.14-.03.22-.04.37-.06.99-.16,1.34-.24v-1.07h-.61c-.07,0-.17-.24-.2-.3-.18-.3-.33-.66-.52-.95h3c-.02.09-.51.97-.59,1.11-.12.2-.02.14-.72.14v1.07c.14.03.28.05.43.08.2.04,1.19.24,1.35.24.1,0,.7-.67.79-.74.11-.09.71-.73.79-.75v-.04c-.11-.03-1.48-.98-1.67-1.11.02-.09.13-.19.16-.28.11,0,1.57,1.02,1.79,1.14.17-.11.73-.6.96-.78.22-.17.42-.36.65-.53.11-.08.07-.05.08-.22l.23-4.48c0-.12.02-.17.02-.28,0-.37.05-.75.05-1.12l-.22.1s-.07.03-.11.05c-.2.09-1.35.65-1.48.68.02.1,0,.3-.03.43-.02.16-.03.3-.05.46l-.1.92c-.03.3-.07.62-.1.92-.04.32-.09.61-.09.93-.13.03-.58.22-.73.29-.07.03-.06.04-.1.11-.05.09-.11.18-.15.27-.19.36-.41.71-.6,1.07-.12-.03-.5-.26-.61-.32-.05-.03-.1-.05-.15-.08-.06-.03-.09-.05-.16-.09l-.31-.16c-.04.08-.19.28-.19.37.06.03.1.06.17.09.06.03.13.05.16.1h-.74v-1.18c0-.07.46-.2.54-.23l.57-.21c.09-.03.18.05.26.09l.53.25c.07.03.2.12.28.12.01-.05.06-.13.09-.19.03-.07.07-.12.1-.18-.18-.04-.35-.16-.52-.23-.1-.04-.17-.08-.25-.11-.13-.05-.1-.1-.15-.24l-.26-.88c-.04-.15-.04-.16-.04-.34l1.28-.63c0-.17.04-.29.04-.47l-1.32.65v-.21c.09-.05.19-.08.29-.13l1.73-.84c.09-.05.2-.11.3-.13,0-.08-.17-.31-.23-.35-.09.02-1.13.53-1.26.6-.21.1-.41.2-.63.3-.11.06-.19.1-.31.15-.06.02-.1.05-.15.08-.05.02-.14.05-.14.11v1.12c0,.15.15.56.2.73.02.08.06.18.06.25h-2.44c.06-.12.28-.9.28-.97v-1.14c0-.07-.22-.14-.29-.17l-1.84-.9c-.06-.03-.1-.05-.15-.07-.06-.03-.11-.06-.17-.07-.05.1-.18.27-.19.37.07.02.21.09.28.12l1.68.81c.1.05.2.09.29.13v.21l-.98-.49c-.08-.04-.27-.15-.35-.16.02.04.03.21.03.26,0,.05,0,.1.01.13.01.09-.01.06.05.11.05.03.15.07.2.1.07.04.14.07.21.11.17.08.68.37.83.4,0,.24-.05.38-.12.6l-.21.7c-.05.15-.07.15-.32.25-.17.07-.33.18-.51.23.01.14.15.24.18.37.1,0,.65-.28.78-.35.25-.12.18-.1.54.03.09.03.19.07.28.1.08.03.18.07.27.1.06.02.26.05.26.13v1.18h-.76l.35-.19c0-.11-.14-.27-.19-.37-.17.05-.99.57-1.18.61-.05-.09-.09-.18-.14-.26l-.44-.79c-.05-.1-.1-.16-.15-.26-.06-.12-.13-.12-.25-.17-.18-.07-.42-.14-.58-.25,0-.25-.06-.65-.1-.91-.04-.31-.06-.59-.1-.9-.03-.21-.21-1.61-.21-1.81-.11-.03-.97-.44-1.15-.52l-.7-.32.14,2.78c.01.2,0,.38.02.58,0,.09.02.15.02.26l.11,1.97c0,.09,0,.18,0,.27.02.13-.02.16.07.23l1.46,1.19c.06.05.1.09.17.13"/>
  <path class="cls-1" d="M1.02,6.26c.01.05.06.1.1.15.04.06.07.1.11.15l.65.89c-.02.09-.04.08-.09.14-.04.05-.07.08-.11.12l-.42.5c-.08.1-.19.18-.2.26.06.01.08.03.12.05.04.02.08.03.12.05l1.7.77s.05-.07.09-.11c.03-.04.06-.08.09-.12.06-.08.12-.15.18-.24l1.1-1.42c.3,0,2.15.23,2.28.23.06,0,.21-.02.27-.03.32-.03,1.84-.2,2.02-.2.01.05.13.19.17.23l1.19,1.52s.07.08.08.13c.1,0,.17-.06.25-.1l1.72-.78c-.02-.08-.03-.07-.08-.13l-.63-.74c-.14-.18-.15-.05.11-.43l.65-.91-.68-.39c-.12-.07-.23-.12-.35-.2-.12-.08-.19-.02-.44.01-.15.02-.31.05-.47.08-.13.02-.15.09-.28.26-.04.06-.43.57-.48.6-.1-.03-.18-.17-.28-.19.02-.08.16-.23.21-.3.06-.07.19-.22.21-.3H3.59c0,.08,0,.03.04.08.02.02.04.04.06.07.04.05.07.1.12.15.05.06.2.23.21.3-.05.01-.09.06-.14.09-.05.03-.09.09-.15.1-.05-.03-.53-.65-.59-.74-.06-.07-.05-.11-.15-.13l-.7-.11c-.12-.02-.13-.04-.22.02-.26.16-.82.45-1.04.59"/>
  <path class="cls-1" d="M41.79,6.15c-.1-.18-.2-.35-.3-.53l-.91-1.58h-2.28c.09.14.09.1.15.18l.57.66s.04.06.08.1c.04.04.04.04.08.09.03.04.05.05.08.09.19.23.58.65.74.85.14.18.13.14.39.14.47,0,.94,0,1.41,0"/>
  <path class="cls-1" d="M7.75,14.04c.14.03.57.28.74.37.08.04.17.08.25.12.04-.08.18-.3.19-.37-.08-.04-.16-.08-.25-.12-.17-.09-.65-.36-.76-.37-.03.06-.06.12-.09.18-.05.1-.08.11-.09.19"/>
  <path class="cls-1" d="M4.66,14.13c.02.08.15.28.19.37.08-.02.36-.18.47-.23.08-.04.16-.08.23-.12.08-.04.15-.08.23-.12l-.18-.35c-.14.01-.83.43-.95.46"/>
</svg>