<svg width="56" height="56" viewBox="0 0 56 56" fill="none" xmlns="http://www.w3.org/2000/svg">
<rect x="0.5" y="0.5" width="55" height="55" rx="27.5" stroke="#A68740"/>
<path d="M41.3332 28.1212C41.3332 27.9115 41.2253 27.7164 41.0472 27.606L38.9429 26.303L41.0472 25.0012C41.2253 24.8897 41.3332 24.6946 41.3332 24.4848C41.3332 24.2751 41.2253 24.08 41.046 23.9697L28.3187 16.0909C28.223 16.0315 28.1126 16 27.9999 16C27.8873 16 27.7769 16.0315 27.6812 16.0909L14.9539 23.9697C14.7745 24.08 14.6666 24.2751 14.6666 24.4848C14.6666 24.6946 14.7745 24.8897 14.9539 25L17.0569 26.303L14.9527 27.6072C14.7745 27.7163 14.6666 27.9115 14.6666 28.1212C14.6666 28.3309 14.7745 28.526 14.9527 28.6364L17.057 29.9394L14.9527 31.2436C14.7745 31.3527 14.6666 31.5478 14.6666 31.7576C14.6666 31.9673 14.7757 32.1624 14.9539 32.2727L27.6812 40.1515C27.7781 40.2122 27.8896 40.2424 28 40.2424C28.1103 40.2424 28.2218 40.2122 28.3188 40.1515L41.046 32.2727C41.2242 32.1624 41.3333 31.9673 41.3333 31.7576C41.3333 31.5478 41.2254 31.3527 41.0472 31.2424L38.943 29.9381L41.0472 28.6351C41.2254 28.526 41.3332 28.3309 41.3332 28.1212ZM16.4242 24.4848L28 17.3188L39.5757 24.4848L28 31.6509L16.4242 24.4848ZM39.5757 31.7576L28 38.9236L16.4242 31.7576L18.2084 30.6521L27.6812 36.5164C27.7781 36.5757 27.8896 36.6061 28 36.6061C28.1103 36.6061 28.2218 36.5758 28.3188 36.5152L37.7915 30.6509L39.5757 31.7576ZM28 35.2872L16.423 28.1212L18.2072 27.0146L27.68 32.8788C27.7781 32.9394 27.8897 32.9697 28 32.9697C28.1102 32.9697 28.2218 32.9394 28.3188 32.8788L37.7915 27.0145L39.5769 28.1211L28 35.2872Z" fill="#A68740"/>
</svg>
