<svg width="64" height="64" viewBox="0 0 64 64" fill="none" xmlns="http://www.w3.org/2000/svg">
<rect x="0.5" y="0.5" width="63" height="63" rx="31.5" stroke="#A68740"/>
<path d="M49.9851 25.2532L32.4034 13.7949C32.1468 13.6299 31.8168 13.6299 31.5601 13.7949L14.0151 25.2532C13.6668 25.4916 13.5751 25.9682 13.8134 26.3166C14.0518 26.6466 14.4918 26.7382 14.8401 26.5366L16.7101 25.3082V48.0416C16.7101 49.3066 17.7368 50.3332 19.0018 50.3332H44.9801C46.2451 50.3332 47.2718 49.3066 47.2718 48.0416V25.3082C47.5651 25.4549 49.2518 26.7382 49.5634 26.6466C49.9851 26.6466 50.3334 26.2799 50.3151 25.8582C50.3151 25.6016 50.1868 25.3816 49.9851 25.2349V25.2532ZM40.3968 48.8116H38.8751V43.4582C38.8751 43.0366 38.5268 42.6882 38.1051 42.6882H35.8134V37.3349C35.8134 36.9132 35.4651 36.5649 35.0434 36.5649H28.9384C28.5168 36.5649 28.1684 36.9132 28.1684 37.3349V42.6882H25.8768C25.4551 42.6882 25.1068 43.0366 25.1068 43.4582V48.8116H23.5851V35.0616H40.3968V48.8116ZM29.7084 42.6882V38.1049H34.2918V42.6882H29.7084ZM26.6468 44.2282H31.2301V48.8116H26.6468V44.2282ZM32.7518 48.8116V44.2282H37.3351V48.8116H32.7518ZM45.7501 48.0416C45.7501 48.4632 45.4018 48.8116 44.9801 48.8116H41.9184V34.2916C41.9184 33.8699 41.5701 33.5216 41.1484 33.5216H22.8334C22.4118 33.5216 22.0634 33.8699 22.0634 34.2916V48.8116H19.0018C18.5801 48.8116 18.2318 48.4632 18.2318 48.0416V24.3182L31.9818 15.3532L45.7318 24.3182V48.0416H45.7501ZM38.1051 28.9382C38.1051 29.3599 37.7568 29.7082 37.3351 29.7082H26.6468C26.2251 29.7082 25.8768 29.3599 25.8768 28.9382C25.8768 28.5166 26.2251 28.1682 26.6468 28.1682H37.3351C37.7568 28.1682 38.1051 28.4982 38.1051 28.9199V28.9382ZM26.6468 24.3549H37.3351C37.7568 24.3549 38.1051 24.7032 38.1051 25.1249C38.1051 25.5466 37.7568 25.8949 37.3351 25.8949H26.6468C26.2251 25.8949 25.8768 25.5466 25.8768 25.1249C25.8768 24.7032 26.2251 24.3549 26.6468 24.3549Z" fill="#A68740"/>
</svg>
