<svg width="64" height="64" viewBox="0 0 64 64" fill="none" xmlns="http://www.w3.org/2000/svg">
<rect x="0.5" y="0.5" width="63" height="63" rx="31.5" stroke="#A68740"/>
<path d="M31.9634 18.9099C28.4801 18.9099 25.6384 21.7516 25.6384 25.2349C25.6384 28.2782 27.8201 30.8816 30.8084 31.4499L31.0284 31.4866V29.8732L30.8818 29.8366C28.7368 29.3232 27.2334 27.4349 27.2334 25.2349C27.2334 22.6316 29.3601 20.5049 31.9634 20.5049C34.5668 20.5049 36.6934 22.6316 36.6934 25.2349C36.6934 27.4349 35.2084 29.3232 33.1001 29.8182L32.9534 29.8549V31.4682L33.1734 31.4316C36.1434 30.8816 38.2884 28.2782 38.2884 25.2349C38.2884 21.7516 35.4468 18.9099 31.9634 18.9099Z" fill="#A68740"/>
<path d="M36.7116 40.2317C39.9566 35.3917 43.7333 28.9751 43.7333 25.2351C43.7333 18.7634 38.4533 13.4834 31.9816 13.4834C25.51 13.4834 20.23 18.7634 20.23 25.2351C20.23 28.0584 22.3566 32.7517 26.5366 39.1684L27.4166 40.4884L28.205 41.6251L28.425 41.9551C29.3783 43.3301 30.35 44.6684 31.3583 45.9884C31.505 46.1717 31.7433 46.3001 31.9816 46.3001C32.165 46.3001 32.3116 46.2451 32.44 46.1534L32.605 46.0067L32.7516 45.8051C33.155 45.2734 34.2916 43.7517 35.7033 41.7167C40.5983 42.3034 43.5133 43.9351 43.5133 45.2001C43.5133 46.7584 39.1316 48.9217 31.9816 48.9217C24.8316 48.9217 20.4683 46.7584 20.4683 45.2001C20.4683 44.2651 22.155 42.9084 25.8583 42.1201L26.115 42.0651L25.1616 40.6351L25.0333 40.6717C21.1283 41.6067 18.8733 43.2751 18.8733 45.2184C18.8733 48.6651 25.62 50.5351 31.9633 50.5351C38.3066 50.5351 45.0716 48.6651 45.0716 45.2184C45.0716 42.8901 41.8633 41.0017 36.675 40.2501L36.7116 40.2317ZM31.9633 44.1734C29.9466 41.4601 21.8066 30.1851 21.8066 25.2351C21.8066 19.6434 26.3716 15.0784 31.9633 15.0784C37.555 15.0784 42.12 19.6434 42.12 25.2351C42.12 30.1851 33.98 41.4601 31.9633 44.1734Z" fill="#A68740"/>
</svg>
