<svg width="56" height="56" viewBox="0 0 56 56" fill="none" xmlns="http://www.w3.org/2000/svg">
<rect x="0.5" y="0.5" width="55" height="55" rx="27.5" stroke="#A68740"/>
<path d="M29.2134 14.4267V16.0667C35.24 16.68 39.9467 21.7733 39.9467 27.96C39.9467 34.5467 34.5867 39.92 27.9867 39.92C21.3867 39.92 16.04 34.56 16.04 27.9733C16.04 21.7867 20.76 16.6933 26.7867 16.08V14.44C19.8534 15.0533 14.4 20.88 14.4 27.9733C14.4 35.4667 20.5067 41.5733 28 41.5733C35.4934 41.5733 41.6 35.4667 41.6 27.9733C41.6 20.88 36.1467 15.0533 29.2134 14.44V14.4267Z" fill="#A68740"/>
<path d="M33.44 27.28L24.36 21.4267L24.4 31.9733V34.4667L25.64 33.68L33.44 28.6667L34.52 27.9733L33.44 27.28ZM26.04 31.4667V24.48L31.48 27.9733L26.04 31.4667Z" fill="#A68740"/>
</svg>
