<?xml version="1.0" encoding="UTF-8"?>
<svg id="Layer_1" data-name="Layer 1" xmlns="http://www.w3.org/2000/svg" viewBox="0 0 53.48 23.5">
  <defs>
    <style>
      .cls-1 {
        fill: #233b57;
      }
    </style>
  </defs>
  <path class="cls-1" d="M6.88,7.06h2.11l-3.99,4.91,4.02,4.75h-2.23l-2.92-3.6-.84.95v2.66h-1.71V7.06h1.71v4.72l3.84-4.72h.03,0ZM16.38,7.12v1.65h-4.78v2.28h3.97v1.69h-3.97v2.28h4.78v1.71h-6.49V7.06h6.49v.05ZM24.21,16.73h-1.79l-1.83-3.98h-1.21v3.98h-1.71V7.06h3.24s3.25,0,3.25,2.84c0,.78-.25,1.36-.61,1.77-.35.39-.79.64-1.21.8l1.97,4.26s-.09,0-.09,0ZM20.91,8.77h-1.53v2.28h1.53s1.54,0,1.54-1.15-1.53-1.13-1.54-1.13M25.62,9.87c.64-1.65,2.11-2.93,4.4-2.93s3.75,1.29,4.39,2.93c.25.64.37,1.33.37,2.02s-.12,1.39-.37,2.02c-.64,1.65-2.1,2.93-4.39,2.93s-3.76-1.29-4.41-2.93c-.25-.64-.37-1.33-.37-2.02s.12-1.39.37-2.02M27.22,13.26c.41,1.09,1.34,1.94,2.8,1.94s2.4-.85,2.81-1.95c.16-.43.24-.89.24-1.35s-.08-.92-.24-1.35c-.41-1.09-1.34-1.95-2.81-1.95s-2.39.85-2.8,1.95c-.16.43-.24.89-.24,1.35s.08.92.24,1.35M39.06,12.6l2.07-5.53h1.84c-1.3,3.34-2.6,6.67-3.9,10.01-1.3-3.34-2.59-6.67-3.89-10.01h1.84l2.05,5.53h0ZM45.38,16.73h-1.65V7.06h1.71v9.67h-.05ZM46.52,7.06h5.65v1.57h-2.01v8.09h-1.69v-8.1h-2.01v-1.57h.06Z"/>
</svg>