<svg width="56" height="56" viewBox="0 0 56 56" fill="none" xmlns="http://www.w3.org/2000/svg">
<rect x="0.5" y="0.5" width="55" height="55" rx="27.5" stroke="#A68740"/>
<path d="M38.7876 39.9999C38.5896 34.2102 33.8267 29.5586 27.9876 29.5586C22.1484 29.5586 17.3855 34.2102 17.1876 39.9999H15.9999C16.0865 36.9318 17.336 34.0617 19.5133 31.8844C20.8123 30.5854 22.3463 29.6205 24.0783 29.0267L24.7711 28.7916L24.1649 28.371C22.3216 27.0968 21.2206 25.0061 21.2206 22.7793C21.2206 19.0432 24.2639 15.9999 27.9999 15.9999C31.736 15.9999 34.7793 19.0432 34.7793 22.7793C34.7793 25.0061 33.6783 27.0968 31.835 28.371L31.2288 28.7916L31.9216 29.0267C33.6412 29.6205 35.1752 30.5854 36.4865 31.8844C38.6639 34.0617 39.901 36.9318 39.9999 39.9999H38.7876ZM27.9876 17.1875C24.9072 17.1875 22.3958 19.6988 22.3958 22.7793C22.3958 25.8597 24.9072 28.371 27.9876 28.371C31.068 28.371 33.5793 25.8597 33.5793 22.7793C33.5793 19.6988 31.068 17.1875 27.9876 17.1875Z" fill="#A68740"/>
<path fill-rule="evenodd" clip-rule="evenodd" d="M27.9999 16.1332C24.3375 16.1332 21.3539 19.1168 21.3539 22.7793C21.3539 24.9619 22.4331 27.0118 24.2407 28.2613L25.0644 28.8329L24.1215 29.1528C22.4092 29.7399 20.8925 30.6938 19.6076 31.9787C17.4866 34.0998 16.2563 36.8846 16.1379 39.8665H17.0595C17.3255 34.0654 22.1195 29.4253 27.9876 29.4253C33.8557 29.4253 38.6497 34.0654 38.9157 39.8665H39.8615C39.7316 36.8841 38.513 34.0994 36.3923 31.9787C35.0949 30.6937 33.5782 29.7399 31.8785 29.1528L30.9355 28.8329L31.759 28.2615C33.5665 27.0119 34.646 24.9619 34.646 22.7793C34.646 19.1168 31.6624 16.1332 27.9999 16.1332ZM21.0872 22.7793C21.0872 18.9695 24.1902 15.8665 27.9999 15.8665C31.8097 15.8665 34.9127 18.9695 34.9127 22.7793C34.9127 25.0502 33.7898 27.1818 31.9108 28.4807L31.5222 28.7504L31.9644 28.9004C33.7035 29.501 35.2553 30.4771 36.5804 31.7897C38.7817 33.991 40.0332 36.8938 40.1332 39.9956L40.1376 40.1332H38.6587L38.6543 40.0044C38.4588 34.2861 33.7544 29.692 27.9876 29.692C22.2207 29.692 17.5163 34.2861 17.3208 40.0044L17.3164 40.1332H15.8628L15.8667 39.9961C15.9542 36.8936 17.218 33.9912 19.4191 31.7901C20.7321 30.4771 22.2835 29.5011 24.0351 28.9005L24.4777 28.7504L24.0891 28.4807C22.21 27.1818 21.0872 25.0502 21.0872 22.7793ZM22.2625 22.7793C22.2625 19.6252 24.8335 17.0542 27.9876 17.0542C31.1416 17.0542 33.7127 19.6252 33.7127 22.7793C33.7127 25.9333 31.1416 28.5043 27.9876 28.5043C24.8335 28.5043 22.2625 25.9333 22.2625 22.7793ZM27.9876 17.3208C24.9808 17.3208 22.5292 19.7725 22.5292 22.7793C22.5292 25.786 24.9808 28.2377 27.9876 28.2377C30.9943 28.2377 33.446 25.786 33.446 22.7793C33.446 19.7725 30.9943 17.3208 27.9876 17.3208Z" fill="#A68740"/>
</svg>
