<svg width="45" height="66" viewBox="0 0 45 66" fill="none" xmlns="http://www.w3.org/2000/svg">
<path d="M2.49038 17.796C2.49038 11.316 3.78638 0.659998 13.0504 0.659998C21.8344 0.659998 23.0824 10.692 23.0824 17.604C23.0824 25.044 21.7384 34.836 12.6184 34.836C3.88238 34.836 2.49038 25.812 2.49038 17.796ZM7.43438 18.084C7.43438 28.5 8.25038 34.02 12.8104 34.02C17.3224 34.02 18.1384 28.5 18.1384 16.644C18.1384 6.948 16.8424 1.428 12.7624 1.428C8.53838 1.428 7.43438 7.14 7.43438 18.084ZM38.8943 34.5H34.3343V7.044H34.1903C32.9903 10.212 30.3983 13.236 26.9902 13.716V10.308C31.5983 9.588 35.8223 5.556 38.2703 0.323999H38.8943V34.5Z" fill="#A68740"/>
<path d="M7.80384 59.656C7.34384 59.656 6.90184 59.584 6.47784 59.44C6.05384 59.296 5.68384 59.09 5.36784 58.822C5.05184 58.55 4.82584 58.228 4.68984 57.856L5.85984 57.418C5.92784 57.61 6.05784 57.782 6.24984 57.934C6.44584 58.082 6.67784 58.198 6.94584 58.282C7.21784 58.366 7.50384 58.408 7.80384 58.408C8.12384 58.408 8.42384 58.356 8.70384 58.252C8.98784 58.148 9.21584 58.004 9.38784 57.82C9.56384 57.636 9.65184 57.42 9.65184 57.172C9.65184 56.916 9.55984 56.706 9.37584 56.542C9.19584 56.378 8.96384 56.248 8.67984 56.152C8.39984 56.056 8.10784 55.984 7.80384 55.936C7.21584 55.84 6.68784 55.7 6.21984 55.516C5.75584 55.332 5.38784 55.074 5.11584 54.742C4.84784 54.41 4.71384 53.978 4.71384 53.446C4.71384 52.946 4.85584 52.51 5.13984 52.138C5.42784 51.766 5.80584 51.478 6.27384 51.274C6.74584 51.066 7.25584 50.962 7.80384 50.962C8.25584 50.962 8.69184 51.034 9.11184 51.178C9.53584 51.318 9.90784 51.524 10.2278 51.796C10.5518 52.064 10.7838 52.39 10.9238 52.774L9.74184 53.2C9.67384 53.004 9.54384 52.834 9.35184 52.69C9.15984 52.542 8.92784 52.426 8.65584 52.342C8.38784 52.258 8.10384 52.216 7.80384 52.216C7.48384 52.212 7.18384 52.264 6.90384 52.372C6.62784 52.476 6.40184 52.62 6.22584 52.804C6.04984 52.988 5.96184 53.202 5.96184 53.446C5.96184 53.746 6.04384 53.974 6.20784 54.13C6.37184 54.286 6.59184 54.402 6.86784 54.478C7.14784 54.55 7.45984 54.616 7.80384 54.676C8.35584 54.764 8.86584 54.91 9.33384 55.114C9.80584 55.318 10.1838 55.59 10.4678 55.93C10.7558 56.266 10.8998 56.68 10.8998 57.172C10.8998 57.668 10.7558 58.104 10.4678 58.48C10.1838 58.852 9.80584 59.142 9.33384 59.35C8.86584 59.554 8.35584 59.656 7.80384 59.656ZM21.3123 51.1V52.348H18.6363V59.5H17.3883V52.348H14.7183V51.1H21.3123ZM25.5169 59.5V51.1H30.7309V52.348H26.7649V54.376H29.9569V55.624H26.7649V58.252H30.7309V59.5H25.5169ZM35.1028 59.5V51.1H37.9948C38.4468 51.1 38.8548 51.212 39.2188 51.436C39.5868 51.66 39.8788 51.962 40.0948 52.342C40.3148 52.722 40.4248 53.142 40.4248 53.602C40.4248 54.07 40.3128 54.494 40.0888 54.874C39.8688 55.25 39.5748 55.55 39.2068 55.774C38.8388 55.998 38.4348 56.11 37.9948 56.11H36.3508V59.5H35.1028ZM36.3508 54.862H37.8688C38.1088 54.862 38.3268 54.802 38.5228 54.682C38.7228 54.562 38.8808 54.402 38.9968 54.202C39.1168 54.002 39.1768 53.776 39.1768 53.524C39.1768 53.272 39.1168 53.046 38.9968 52.846C38.8808 52.642 38.7228 52.482 38.5228 52.366C38.3268 52.246 38.1088 52.186 37.8688 52.186H36.3508V54.862Z" fill="#A68740"/>
</svg>
