<?xml version="1.0" encoding="UTF-8"?>
<svg id="Layer_1" data-name="Layer 1" xmlns="http://www.w3.org/2000/svg" viewBox="0 0 45.07 23.5">
  <defs>
    <style>
      .cls-1 {
        fill: #e42c2e;
      }

      .cls-2 {
        fill: #00467a;
        fill-rule: evenodd;
      }
    </style>
  </defs>
  <g id="Layer_1-2" data-name="Layer 1-2">
    <path class="cls-2" d="M20.37,11.4h0c.25-.22.38-.57.38-1.05,0-.27-.06-.49-.18-.65-.12-.16-.29-.27-.5-.33s-.47-.09-.77-.09h-2.97v2.45h2.86c.54,0,.93-.11,1.18-.33M13.83,7.05h5.76c.84,0,1.53.09,2.08.28s.95.49,1.22.9c.27.41.41.95.41,1.63,0,.61-.1,1.13-.3,1.54-.2.42-.52.74-.94.95-.43.21-.97.32-1.63.32v.08c.55,0,.99.06,1.33.18.34.12.61.33.81.62.21.29.38.7.5,1.23l.5,2.13h-2.6l-.43-2c-.07-.33-.17-.59-.3-.78-.13-.19-.28-.32-.46-.4-.18-.07-.41-.11-.68-.11h-2.78v3.29h-2.5V7.05Z"/>
    <polygon class="cls-2" points="24.6 7.05 32.82 7.05 32.82 9.29 27.11 9.29 27.11 10.9 32.54 10.9 32.54 13.05 27.11 13.05 27.11 14.68 32.82 14.68 32.82 16.92 24.6 16.92 24.6 7.05"/>
    <polygon class="cls-1" points="26 4.04 28.42 4.04 30.07 6.27 27.95 6.27 26 4.04"/>
    <path class="cls-2" d="M36.08,16.76c-.7-.22-1.25-.58-1.66-1.1-.41-.51-.68-1.19-.8-2.06h2.63c.06.41.2.74.4.99.2.25.48.42.83.54.35.11.8.17,1.35.17.74,0,1.3-.09,1.67-.28s.57-.46.57-.83c0-.26-.11-.45-.33-.6-.22-.15-.5-.26-.84-.33-.34-.07-.81-.15-1.42-.22-.95-.12-1.74-.27-2.36-.44-.62-.17-1.15-.47-1.6-.9s-.67-1.04-.67-1.83c0-.6.15-1.12.45-1.57.3-.44.8-.79,1.5-1.04s1.64-.38,2.81-.38c1.04,0,1.9.11,2.59.34.69.22,1.22.59,1.61,1.09.39.5.62,1.17.7,1.99h-2.54c-.06-.4-.17-.7-.33-.93-.16-.22-.4-.39-.73-.5s-.78-.16-1.37-.16c-.52,0-.94.04-1.25.12-.31.08-.53.19-.66.33-.13.14-.2.31-.2.51,0,.26.11.45.33.59s.49.25.82.31c.33.07.8.14,1.41.22.96.12,1.75.27,2.38.44.62.17,1.16.47,1.61.92.45.45.68,1.08.68,1.9,0,.61-.15,1.14-.45,1.59-.3.45-.81.8-1.54,1.06-.73.26-1.71.39-2.94.39-1.06,0-1.95-.11-2.65-.33"/>
    <path class="cls-2" d="M3.47,16.57c-.68-.34-1.19-.88-1.54-1.6-.34-.72-.52-1.64-.52-2.76,0-1.21.2-2.19.61-2.96s1.02-1.35,1.86-1.72c.83-.38,1.92-.57,3.25-.57s2.4.14,3.2.4,1.39.66,1.79,1.19c.4.53.68,1.22.83,2.08h-2.9c-.08-.42-.22-.76-.43-1.01-.21-.25-.51-.44-.9-.57-.39-.13-.91-.19-1.54-.19-.8,0-1.44.1-1.9.3-.46.2-.79.53-1,.98s-.3,1.07-.3,1.86.1,1.43.31,1.9.54.79,1,1c.45.2,1.06.3,1.83.3.4,0,.86-.06,1.19-.12.39-.07.77-.22,1.08-.46.43-.34.7-.79.72-1.4v-.9l.51,1.01h-3.27v-1.74h5.6l.03,5.35h-2.2l-.05-1.62-.04-.95s-.08.27-.18.49c-.12.26-.37.58-.49.73-.16.19-.7.74-1.49,1.06-.66.27-1.48.45-2.48.45s-1.88-.17-2.56-.52"/>
  </g>
</svg>